<?xml version="1.0" encoding="utf-8"?>
<!-- Generator: Adobe Illustrator 24.1.1, SVG Export Plug-In . SVG Version: 6.00 Build 0)  -->
<svg version="1.1" id="Layer_1" xmlns="http://www.w3.org/2000/svg" xmlns:xlink="http://www.w3.org/1999/xlink" x="0px" y="0px"
	 viewBox="0 0 500 500" style="enable-background:new 0 0 500 500;" xml:space="preserve">
<style type="text/css">
	.st0{opacity:0.3;fill:#DAEEFF;enable-background:new    ;}
	.st1{fill:#90CAF9;}
	.st2{opacity:0.7;fill:#DAEEFF;enable-background:new    ;}
	.st3{fill:#263238;}
	.st4{fill:none;stroke:#263238;stroke-linecap:round;stroke-linejoin:round;}
	.st5{fill:none;stroke:#263238;stroke-width:1;stroke-linecap:round;stroke-linejoin:round;stroke-miterlimit:3.9999;}
	.st6{fill:none;stroke:#263238;stroke-linecap:round;stroke-linejoin:round;stroke-dasharray:2.98,2.98;}
	.st7{fill:#FFFFFF;}
	.st8{clip-path:url(#SVGID_2_);}
	.st9{opacity:0.4;fill:#90CAF9;enable-background:new    ;}
	.st10{fill:#66B7FE;}
	.st11{opacity:0.2;enable-background:new    ;}
	.st12{fill:#FFFFFF;stroke:#263238;stroke-linecap:round;stroke-linejoin:round;}
	.st13{opacity:0.2;}
	.st14{fill:none;stroke:#FFFFFF;stroke-linecap:round;stroke-linejoin:round;}
	.st15{fill:#263238;stroke:#263238;stroke-linecap:round;stroke-linejoin:round;}
	.st16{clip-path:url(#SVGID_4_);}
	.st17{fill:#FFFFFF;stroke:#263238;stroke-width:1.0017;stroke-linecap:round;stroke-linejoin:round;stroke-miterlimit:4.0068;}
	.st18{fill:#90CAF9;stroke:#263238;stroke-linecap:round;stroke-linejoin:round;}
	.st19{fill:#66B7FE;stroke:#263238;stroke-miterlimit:10;}
	.st20{font-family:'Montserrat-SemiBold';}
	.st21{font-size:9px;}
</style>
<g>
	<path class="st0" d="M67.9,167.1c0,0-27.9,72,11.3,144.5s119.9,110.8,184.5,143.6s131.7,16.8,163.5-36.8s-11.8-91.9-11.9-168.4
		s11.5-96.7-30-161.4s-143.1-78.9-219.9-31S67.9,167.1,67.9,167.1z"/>
	<path class="st1" d="M61.3,184.5c37.8-37.8,69.9-6.1,83.4-56.9C175.1,12.9,301.5,14,318.1,95.6c30,147,160.4,53.6,159.4,158.9
		c-1,112.4-83.7,200-232,208.7C112.7,471.1-1.4,247.1,61.3,184.5z"/>
	<path class="st2" d="M61.3,184.5c37.8-37.8,69.9-6.1,83.4-56.9C175.1,12.9,301.5,14,318.1,95.6c30,147,160.4,53.6,159.4,158.9
		c-1,112.4-83.7,200-232,208.7C112.7,471.1-1.4,247.1,61.3,184.5z"/>
	<g id="freepik--Discount--inject-37">
		<path class="st3" d="M155.1,120c-0.2-2,0.7-3.3,2.6-3.5s3.1,0.8,3.4,2.8l0.8,6.5c0.2,2-0.7,3.3-2.6,3.5s-3.1-0.8-3.4-2.8
			L155.1,120z M157.9,126.4c0.1,0.9,0.5,1.2,1.2,1.1s1-0.5,0.9-1.4l-0.8-6.8c-0.1-0.9-0.6-1.2-1.2-1.1s-1,0.5-0.9,1.4L157.9,126.4z
			 M165.6,115.7l1.8-0.2l-5.5,20.7l-1.8,0.2L165.6,115.7z M165.8,126.1c-0.2-2,0.7-3.3,2.6-3.5s3.1,0.8,3.4,2.8l0.8,6.5
			c0.2,2-0.7,3.3-2.6,3.5s-3.1-0.8-3.4-2.8L165.8,126.1z M168.5,132.5c0.1,0.9,0.5,1.2,1.2,1.1s1-0.5,0.9-1.4l-0.8-6.8
			c-0.1-0.9-0.5-1.2-1.2-1.1s-1,0.5-0.9,1.4L168.5,132.5z"/>
		<path class="st4" d="M177.2,139.9l-23.2,2.7c-1.1,0.1-2.1-0.7-2.2-1.8L149,117c-0.1-0.9,0.2-1.8,0.9-2.4l9.7-9.5
			c1-0.9,2.4-1.1,3.6-0.4l11.6,7c0.8,0.5,1.3,1.3,1.4,2.2l2.8,23.9C179,138.8,178.3,139.8,177.2,139.9z"/>
		<path class="st4" d="M163.2,107.7c0.1,0.8-0.5,1.6-1.3,1.7s-1.6-0.5-1.7-1.3c-0.1-0.8,0.5-1.6,1.3-1.7l0,0
			C162.3,106.3,163.1,106.9,163.2,107.7L163.2,107.7z"/>
		<path class="st4" d="M161.7,91c0,0,4.5,17.4,0,16.9"/>
		<path class="st4" d="M160.5,104.4c0.9-4.8,5.3-13,5.3-13"/>
		<path class="st4" d="M161.7,107.9c-0.5,0-1-0.4-1.1-0.9"/>
		<path class="st4" d="M181.9,97.4c4.1,3.3,7.2,7.6,9,12.4"/>
		<path class="st4" d="M135.1,112.9c4.1-15.7,20.1-25.1,35.7-21c3,0.8,5.8,2,8.3,3.6"/>
		<path class="st4" d="M144.2,142.4c-5.3-4.6-8.7-10.9-9.8-17.9"/>
		<path class="st4" d="M162.3,149.6c-5.4-0.2-10.5-1.9-15-4.9"/>
		<path class="st4" d="M192.4,116c2.3,16-8.7,30.9-24.8,33.3"/>
	</g>
	<g id="freepik--Gift--inject-37">
		<path class="st4" d="M89.2,213.6l36.8,7.1l0,0l-4.3,22.1c-0.2,0.9-1,1.5-1.9,1.3l0,0l0,0l-33.6-6.5c-0.9-0.2-1.5-1-1.3-1.9l0,0
			L89.2,213.6L89.2,213.6L89.2,213.6z"/>
		<path class="st4" d="M127.3,221.2l-38.8-7.5l0,0l1.1-5.9c0.2-0.9,1-1.5,1.9-1.3l0,0l35.5,6.9c0.9,0.2,1.4,1,1.3,1.9L127.3,221.2
			L127.3,221.2L127.3,221.2z"/>
		
			<rect x="90.5" y="222.9" transform="matrix(0.1893 -0.9819 0.9819 0.1893 -135.2475 287.3674)" class="st5" width="31.9" height="5.4"/>
		<path class="st4" d="M109.4,209.9c0,0,9.2-6.7,13.4-4.7s2.1,7.6,0,7.2"/>
		<path class="st4" d="M113.1,210.6c0,0,7.4-3.7,8.5-2s-2.1,3.3-4.6,2.8"/>
		<path class="st4" d="M109.7,209.5c0,0,3.9-7,3.4-9.3h2.6c0,0,0.8,2.7-2.2,7.2"/>
		<path class="st4" d="M109.4,209.9c0,0-6-9.6-10.7-9.3s-4.8,6.3-2.7,6.7"/>
		<path class="st4" d="M105.8,209.2c0,0-5.5-6.2-7.2-5.1s0.8,3.8,3.2,4.3"/>
		<path class="st4" d="M109.4,209.4c0,0-1-7.9,0.3-9.8l-2.4-1c0,0-1.8,2.2-0.7,7.5"/>
		<path class="st4" d="M136.7,198.7c4.1,5.2,6.8,11.4,7.7,18"/>
		<path class="st4" d="M74,204.7c9.5-18.4,32.1-25.6,50.4-16.1c3.5,1.8,6.6,4.1,9.4,6.9"/>
		<path class="st4" d="M77,244c-5.3-7.2-7.8-16.1-7.1-25"/>
		<path class="st4" d="M97.6,258.1c-6.6-1.8-12.6-5.3-17.3-10.3"/>
		<path class="st4" d="M144.6,224.8c-1.6,20.6-19.6,36-40.2,34.4"/>
	</g>
	<g id="freepik--Megaphone--inject-37">
		<path class="st4" d="M292.7,125.1l-3.1-1.6c0.5-1.4,0.6-2.8,0.5-4.3c1,0.5,2.1,1,3,1.4C293,121.9,292.9,123.4,292.7,125.1z"/>
		<path class="st4" d="M297.3,122.7c1,0.5,2.1,0.9,3.2,1.1c1.2,6.1,0.2,12.5-2.6,18.1c-0.8,1.6-9.3-2.8-8.5-4.4
			c1.8-3.9,3-8.1,3.4-12.4c0.2-1.7,0.3-3.2,0.4-4.5C294.9,121.5,296.4,122.2,297.3,122.7z"/>
		<path class="st4" d="M307.5,102.9c5.5,2.8,7.6,9.5,4.8,15c-2.2,4.4-7,6.7-11.8,5.9c-1.1-0.2-2.2-0.6-3.2-1.1
			c-0.9-0.4-2.4-1.2-4.2-2.1l-3-1.4c-2.5-1.1-4.8-2.2-6.1-2.6l10.8-21C297,97.3,304.9,101.6,307.5,102.9z"/>
		<path class="st4" d="M284.3,85.7c3,3.8,6.5,7.1,10.4,9.9l-10.8,21c-4.6-1.5-9.3-2.4-14.1-2.6l-4.2-0.2l16-31.3L284.3,85.7z"/>
		<path class="st4" d="M260.8,114.7L279.6,78c0.3-0.6,1-0.8,1.6-0.5l1.4,0.7c0.6,0.3,0.8,1,0.5,1.6l-1.4,2.7l-16,31.3l-1.4,2.7
			c-0.3,0.6-1,0.8-1.6,0.5l0,0l0,0l-1.4-0.7C260.8,116,260.5,115.3,260.8,114.7L260.8,114.7z"/>
		<line class="st4" x1="261.4" y1="91.8" x2="254.1" y2="88.1"/>
		<line class="st4" x1="269.8" y1="80.2" x2="265.3" y2="72.2"/>
		<line class="st4" x1="256.9" y1="105.4" x2="247.8" y2="106.4"/>
		<path class="st4" d="M317.4,70.9c-6.3-5.9-14.1-9.9-22.5-11.7"/>
		<path class="st4" d="M303.4,151c24.6-10.4,36.1-38.8,25.7-63.4c-2-4.6-4.6-8.9-7.9-12.7"/>
		<path class="st4" d="M253.1,143.2c8.8,7.5,19.9,11.7,31.5,11.6"/>
		<path class="st4" d="M237,115.3c1.6,8.7,5.6,16.8,11.5,23.4"/>
		<path class="st4" d="M284.5,58.1c-26.7,0-48.4,21.7-48.4,48.4l0,0l0,0"/>
	</g>
	<g id="freepik--Heart--inject-37">
		<path class="st4" d="M198.9,184.4c-4.1-3.6-8.3-2-10.4-0.8c-0.4-2.5-2-6.7-7.4-7.4c-5.9-0.8-10.7,4.9-9.1,12.9
			c1.1,5.7,4.8,11,6.8,13.4c0.2,0.3,0.4,0.6,0.6,0.8h1c3.2-0.1,9.5-0.8,14.6-3.6C202,195.6,203.3,188.3,198.9,184.4z"/>
		<path class="st4" d="M176.1,207c0,0-0.3,0.5-0.6,1.4"/>
		<path class="st6" d="M174.4,211.1c-1.6,5.2-2.7,14.2,5.8,19.6c21.1,13.4,28.1-18.3,12-15.4c-11.1,2,0.6,31.3,18,25.4"/>
		<path class="st4" d="M211.7,240.2c0.4-0.2,0.9-0.4,1.3-0.7"/>
	</g>
	<path class="st7" d="M185.7,433.8c0,0-11.9,8.1-16.7,7.5c-0.5,0-1-0.2-1.4-0.6c-3.1-3.2-5.6-8.9-5.6-8.9s1.5-2.1,6.1,3.4l2.9-2.7
		l-6-6.1c0,0,3.4-2.7,9.1,0.7c-0.2-0.4-3.9-8.5-1.1-19.5l-14-13.5l12.4-10.8l1-0.8l2,2c1.2,1.2,2.9,2.7,4.7,4.3c4.4,3.9,9.7,8,12,8
		C195.3,396.8,185.7,433.8,185.7,433.8z"/>
	<g>
		<g>
			<defs>
				<path id="SVGID_1_" d="M185.7,433.8c0,0-11.9,8.1-16.7,7.5c-0.5,0-1-0.2-1.4-0.6c-3.1-3.2-5.6-8.9-5.6-8.9s1.5-2.1,6.1,3.4
					l2.9-2.7l-6-6.1c0,0,3.4-2.7,9.1,0.7c-0.2-0.4-3.9-8.5-1.1-19.5l-14-13.5l12.4-10.8l1-0.8l2,2c1.2,1.2,2.9,2.7,4.7,4.3
					c4.4,3.9,9.7,8,12,8C195.3,396.8,185.7,433.8,185.7,433.8z"/>
			</defs>
			<clipPath id="SVGID_2_">
				<use xlink:href="#SVGID_1_"  style="overflow:visible;"/>
			</clipPath>
			<g class="st8">
				<path class="st9" d="M176.5,428.5c0,0-6.8,7-7.5,12.9c-0.5,0-1-0.2-1.4-0.6c-3.1-3.2-5.6-8.9-5.6-8.9s1.5-2.1,6.1,3.4l2.9-2.7
					l-6-6.1c0,0,3.4-2.7,9.1,0.7c-0.2-0.4-3.9-8.5-1.1-19.5l-14-13.5l12.4-10.8l3,1.1c1.2,1.2,2.9,2.7,4.7,4.3
					c-2.6,3.9-8.3,11.8-8.3,11.8l4.9,6.6C175.8,407.3,172.8,423.9,176.5,428.5z"/>
			</g>
		</g>
	</g>
	<path class="st4" d="M185.7,433.8c0,0-11.9,8.1-16.7,7.5c-0.5,0-1-0.2-1.4-0.6c-3.1-3.2-5.6-8.9-5.6-8.9s1.5-2.1,6.1,3.4l2.9-2.7
		l-6-6.1c0,0,3.4-2.7,9.1,0.7c-0.2-0.4-3.9-8.5-1.1-19.5l-14-13.5l12.4-10.8l1-0.8l2,2c1.2,1.2,2.9,2.7,4.7,4.3c4.4,3.9,9.7,8,12,8
		C195.3,396.8,185.7,433.8,185.7,433.8z"/>
	<path class="st4" d="M171,432.6c0.7-2,1.7-3.8,3.1-5.3"/>
	<path class="st10" d="M392.8,339.6c-1.9,2.7-4.1,5.2-6.7,7.3l0,0c-21.9,18.1-72.3,27-72.3,27s-1.7,2.5-4.3,6.1
		c-4.7,6.5-12.3,16.4-18.5,21.4l0,0c-2.6,2.1-5,3.3-6.8,3l9.5,34.9l4.2,15.2c0,0-43.5,19-117.8-2.7c0,0-0.9-9.7-0.2-11.8
		c0-0.1,0-0.2,0.1-0.3c0.8-1.4,1.7-2.6,2.9-3.7c0,0-0.4-6.2-0.6-12.6c-0.2-4-0.2-8.1,0.1-12.1c0.5-3.2,2.9-10.9,4.1-14.7l0.7-2.2
		l-3.7-34.6l-1.1-10l-0.1-0.5V349l-0.6-5.4l-19.1,5.8c0,0,1,2.2,2.4,5.4c2.5,5.8,6.2,14.5,7,18c0.1,0.3,0.1,0.6,0.2,0.8
		c1.8,5,8.5,9.6,8.5,9.6l-18.1,21.2l-5.4-3.7c-0.7,0.5-1.4,1-2.2,1.4c-5.8,3.4-13,3.5-19,0.4c-3.5-2-6.6-4.7-8.9-7.9
		c-14.2-18.4-20.4-33.5-18.4-51.2s81.5-72.2,97.3-71.6l23.5,5.2c0.5-0.4,1.9-1.5,2.9-1.5c4.3,0.2,4.4,5.2,4.4,5.2l52.6,8.5
		c0,0,5.5-2.7,6.4-2.7c1.4,0.1,2.7,0.9,3.3,2.1c0,0,13.6-8.2,18-6.3C331.7,288.5,403.4,323.4,392.8,339.6z"/>
	<path class="st11" d="M210.1,426c-6,6.6-14,10.9-22.8,12.4c-2.8,0.4-5.2,0.9-7.3,1.3c0.8-1.4,1.7-2.6,2.9-3.7c0,0-0.4-6.2-0.6-12.6
		C188.4,427.5,199.2,432.2,210.1,426z"/>
	<path class="st11" d="M186.4,396.6l0.7-2.2l-3.7-34.6c5.5,7.9,25.3,34.9,38.8,37.9C236.5,400.6,198.5,406,186.4,396.6z"/>
	<path class="st11" d="M293.6,439.3c-14.9-1.7-35.8-5.4-37.9-13.2c-3.3-12.1,12.6-19.4,35.3-24.7c-2.6,2.1-5,3.3-6.8,3L293.6,439.3z
		"/>
	<path class="st11" d="M386,346.9c-21.9,18.1-72.3,27-72.3,27s-1.7,2.5-4.3,6.1c-7.4-17.7-8.6-37.4-3.2-55.9c0,0,3.9,21,20,26
		c0,0-12.3-9.2-8-31.3c0,0,4.2,26,31.6,33.2C363.2,355.6,376.2,351.7,386,346.9z"/>
	<path class="st11" d="M182.3,349.2l-0.6-5.6l-19.1,5.8c0,0,1,2.2,2.4,5.4c-7.3-0.8-21.2,6-23.6-1.4c-2.9-8.9,15-5.9,15-5.9
		l16.9-9.9c-3.2-13.7,4.9-24,4.9-24l1.6,9.6c0.7-18.2,7.9-28.1,7.9-28.1C181.8,309.6,181.9,345,182.3,349.2z"/>
	<path class="st11" d="M180.8,383.3l-18.1,21.2l-5.4-3.7c-0.7,0.5-1.4,1-2.2,1.4c-5.8,3.4-13,3.5-19,0.4c5.9-8.1,18-20.1,32.4-24.7
		c-3.5,5.3-6.7,10.8-9.5,16.4l3.7,3.7C162.7,397.9,172,387.3,180.8,383.3z"/>
	<path class="st11" d="M224.7,290.1c0,1.9-1.2,23,14.2,28.6s29.1-3.9,29.1-3.9s-23.6,22.8-38,10.6S224.7,290.1,224.7,290.1z"/>
	<path class="st4" d="M180.1,451.8c0,0-0.8-9.7-0.2-11.8c0.5-1.7,3-4,3-4s-1.3-19.7-0.5-24.7c0.7-4.4,4.7-17,4.7-17l-5.4-50.7
		l-19.1,5.9c0,0,8.1,18,9.4,23.3s8.8,10.5,8.8,10.5l-18.1,21.1l-5.4-3.7c0,0-15.8,12.4-30.1-6.1s-20.4-33.5-18.4-51.3
		s81.6-72.2,97.3-71.6l23.5,5.2c0.5-0.4,1.9-1.5,2.9-1.5c4.3,0.2,4.4,5.2,4.4,5.2l52.6,8.5c0,0,5.5-2.7,6.4-2.7
		c1.4,0.1,2.6,0.9,3.3,2.1c0,0,13.6-8.1,18-6.3c14.4,6.2,86.1,41.1,75.5,57.3c-15.1,23-79,34.3-79,34.3s-21.3,32-29.6,30.5
		l13.7,50.1"/>
	<path class="st3" d="M271.9,174.2c0,0,15.4-2.3,26.1,7.2c13.5,12.1,28.7,44.7,7.1,98.7c0,0-31.9-21.2-86.4-7c0,0,4.7-12.7-3.5-52.6
		C211.4,202.5,220.8,160.9,271.9,174.2z"/>
	<path class="st12" d="M248.6,309.7c22.8,3.7,46.9-21.5,46.9-21.5s-12.4-1.5-13.5-7.3c-3.5-18.3,10.7-41,10.7-41s-55.3,1.5-45.6,14
		c1.8,2.3,3.3,4.8,4.4,7.5c3.4,8.2,1,14.4-0.8,16c-0.1,0.1-0.3,0.2-0.4,0.3c-3.3,1.5-17.1-0.8-17.1-0.8S227.8,306.4,248.6,309.7z"/>
	<path class="st4" d="M287.7,295.2c0,0-10.5,4.2-25.9,3l-6.9,3.4"/>
	<path class="st4" d="M248,301l-0.5-4.5c0,0-11.3-3.5-14.9-10.3"/>
	<path class="st3" d="M250.8,277.4c16.9,4.4,24.9-17.3,24.9-17.3s-13.5-4-24.1,1.3C254.9,269.7,252.6,275.9,250.8,277.4z"/>
	<path class="st12" d="M293.8,228.5c4.1-23.1-0.5-50.8-35.6-48.5c-25.1,1.6-24.9,29.2-23.3,37.4c2.8,13.8-1.2,19.3,3.1,30.9
		c3.1,8.4,10.3,17.7,18.8,21.2c5.2,2.1,26.3-12.6,27.9-19.4"/>
	<path class="st4" d="M249.6,221.7c-0.2,2.6-0.5,9-6,13.8c-3.6,3.1,4.6,6.2,4.6,6.2"/>
	<path class="st4" d="M243.7,212.5c0,0-7.8-3.8-13,2.5"/>
	<path class="st4" d="M256.7,212c5.5-1.6,11.3-1.3,16.6,0.7"/>
	<path class="st3" d="M264.8,222.9c0.2,2.2,1.7,3.9,3.4,3.7s2.7-2.1,2.5-4.4s-1.7-3.9-3.4-3.7S264.5,220.7,264.8,222.9z"/>
	<path class="st4" d="M248.5,249c6.2-0.8,12.1-3,17.4-6.3c0,0,0.7,9.7-7.4,11.7c-6.2,1.6-8.6-5.6-8.6-5.6"/>
	<path class="st3" d="M271.4,188.8c0,0-2.2,27.4,22,37.3l11.3-26.3l-17.1-19l-25.8-7.5c-38.6,2.4-55.2,26.4-33.8,90.2
		C227.9,263.5,221.9,187.5,271.4,188.8z"/>
	<path class="st12" d="M288,227.3c-0.3-3.1,7.5-10.9,10.1-5.9c4.5,8.6,1.2,16-3.4,19c-2.1,1.3-4.7,3.8-6.6,1.4"/>
	<path class="st3" d="M241.3,224c0.3,2.2,1.8,3.9,3.4,3.7s2.7-2.1,2.5-4.4s-1.8-3.9-3.4-3.7S241,221.7,241.3,224z"/>
	<g class="st13">
		<path class="st14" d="M224.5,219.5c-0.3,1.9-0.5,3.7-0.6,5.6"/>
		<path class="st14" d="M267.4,183.8c-19.5-0.5-37.7,11.9-42,31.5"/>
		<path class="st14" d="M263.9,178.2c0,0-28.2-6.6-38.7,12.1"/>
		<path class="st14" d="M286.7,210.8c1.7,2.4,3.7,4.6,6.1,6.4"/>
		<path class="st14" d="M275.5,181.8c1.4,9,4.5,17.6,8.9,25.5"/>
		<path class="st14" d="M303.9,266.6c-0.5,2.2-1.1,4.5-1.8,6.7"/>
		<path class="st14" d="M302.2,229.4c4.6,10.1,4.3,22.8,2.4,33.5"/>
		<path class="st14" d="M298.9,247c0.5,7.8-2.4,15.4-8,20.9"/>
		<path class="st14" d="M285.9,185.1c4.8,6.5,8.4,13.4,13.9,19.4c5.9,6.2,11.7,13.4,12.8,22.1"/>
		<path class="st14" d="M279.1,178.4c1.4,0.9,2.6,2,3.8,3.1"/>
	</g>
	<path class="st15" d="M375.5,328.8c-0.6,0.1-1.1,0.2-1.7,0.3c-15.1,2.2-32.1-10.4-37.8-25.4c-4.5-11.9-0.6-25.4,1.6-31.1
		c0.7-1.8,1.2-2.9,1.2-2.9c9.1-13,62.1,12.5,62.8,26.5S391,325.4,375.5,328.8z"/>
	<path class="st7" d="M392.1,298c0,0-3,22.3-18.3,31c-15.1,2.2-32.1-10.4-37.8-25.4c-4.5-11.9-0.6-25.4,1.6-31.1l0,0
		C355.5,262.3,392.1,298,392.1,298z"/>
	<g>
		<g>
			<defs>
				<path id="SVGID_3_" d="M392.1,298c0,0-3,22.3-18.3,31c-15.1,2.2-32.1-10.4-37.8-25.4c-4.5-11.9-0.6-25.4,1.6-31.1l0,0
					C355.5,262.3,392.1,298,392.1,298z"/>
			</defs>
			<clipPath id="SVGID_4_">
				<use xlink:href="#SVGID_3_"  style="overflow:visible;"/>
			</clipPath>
			<g class="st16">
				<path class="st9" d="M392.1,298c0,0-3,22.3-18.3,31c-15.1,2.2-32.1-10.4-37.8-25.4c-4.5-11.9-0.6-25.4,1.6-31.1l0,0
					C355.5,262.3,392.1,298,392.1,298z"/>
			</g>
		</g>
	</g>
	<path class="st4" d="M392.1,298c0,0-3,22.3-18.3,31c-15.1,2.2-32.1-10.4-37.8-25.4c-4.5-11.9-0.6-25.4,1.6-31.1l0,0
		C355.5,262.3,392.1,298,392.1,298z"/>
	<path class="st4" d="M329.6,309.8c0,0,17.2,24.7,37.3,26.8s33-14.9,33.8-27.6"/>
	<path class="st12" d="M319.9,198.2c1.5-4.2,12.4-2.8,15.8,10.4s17,45.3,17,45.3s54-79.4,63.6-82.5s5.9,10.7-7.1,29.8
		c0,0,12.1-2.1,15.3,0s1.6,15,3.3,19.5c2.8,7.5-3.5,9.1-3.5,9.1c3.1,0.1,6.1,1.2,8.4,3.2c3.5,3.3,1.7,16.7,2.7,20.5
		c1,3.8-5.6,7-5.6,7s15.9,8.7,12.3,10.9c-6.1,3.7-9.5-0.1-9.5-0.1s-24.5,30.7-42.9,37.5s-54.3-20.3-58.2-35.1s0.8-13.9-2.2-38.5
		S319.9,198.2,319.9,198.2z"/>
	<path class="st17" d="M328,169.1l71.3-18.4c2.5-0.7,5.1,0.9,5.8,3.4l33.3,129.3c0.7,2.5-0.9,5.1-3.4,5.8l-71.3,18.4
		c-2.5,0.7-5.1-0.9-5.8-3.4l-33.3-129.3C323.9,172.3,325.4,169.7,328,169.1z"/>
	<path class="st18" d="M357.9,164.2c0.2,0.6-0.2,1.2-0.8,1.4c-0.6,0.2-1.2-0.2-1.4-0.8c-0.2-0.6,0.2-1.2,0.8-1.4l0,0
		C357.1,163.2,357.7,163.6,357.9,164.2L357.9,164.2z"/>
	<path class="st18" d="M372.5,160.4c0.1,0.4-0.1,0.8-0.5,0.9l0,0c-0.4,0.1-0.8-0.1-0.9-0.5l0,0c-0.1-0.4,0.1-0.8,0.5-0.9l0,0
		C372,159.8,372.4,160,372.5,160.4z"/>
	<path class="st18" d="M360.5,164.4l8.6-2.2c0.2,0,0.3,0.1,0.4,0.2v0.2c0,0.2-0.1,0.3-0.2,0.4l-8.6,2.2c-0.2,0-0.3-0.1-0.4-0.2v-0.2
		C360.2,164.7,360.3,164.5,360.5,164.4z"/>
	<path class="st19" d="M402.2,154.1L435.6,282c0.4,1.5-0.5,3-2,3.4l-70.2,18.3c-1.5,0.4-3-0.5-3.4-2l-33.3-127.9
		c-0.4-1.5,0.5-3,2-3.4l14.4-3.8c0.9-0.2,1.9,0.1,2.5,0.9l1,1.5c0.6,0.8,1.6,1.2,2.5,0.9l31.6-8.2c0.9-0.2,1.6-1,1.7-2l0.2-1.8
		c0.1-1,0.8-1.8,1.7-2l14.4-3.8C400.3,151.8,401.8,152.6,402.2,154.1z"/>
	<circle class="st12" cx="377.5" cy="214.1" r="29.6"/>
	<path class="st3" d="M411,260.7l-40,10.4c-4.8,1.3-9.7-1.6-11-6.4l0,0l0,0c-1.3-4.8,1.6-9.7,6.4-11l0,0l0,0l40-10.4
		c4.8-1.2,9.7,1.6,11,6.4l0,0C418.6,254.5,415.8,259.4,411,260.7z"/>
	<path class="st4" d="M313.8,373.9c0,0-12.1-28.3-6-62.5"/>
	<path class="st4" d="M284.2,404.4c0,0-24.5,7.5-27,13.1s11,0.9,11,0.9"/>
	<path class="st4" d="M299.3,288.6c0,0-22.6,22.4-37.7,28.4"/>
	<path class="st4" d="M225.2,282.5c0,0-4.1,30.2,11.3,36"/>
	<path class="st4" d="M181.7,343.6c0,0-0.1-39.6,7.8-51.9"/>
	<path class="st4" d="M178.8,303.2c0,0-2.2,24.6,2.8,32.6"/>
	<path class="st4" d="M162.6,349.5c0,0-17.2-5.9-20.8,1.4s10.3,0.8,10.3,0.8"/>
	<path class="st4" d="M172.9,375.2c0,0-16.9,9.5-17.8,15"/>
	<path class="st4" d="M200.5,348.9c0,0,32.3,48.8,50.1,44.4"/>
	<path class="st4" d="M222.6,417.4c0,0-25.3,18.6-29,17"/>
	<path class="st11" d="M400,338.1c1.7-1.4,2.8-2.3,3.2-2.6C402.8,335.8,401.7,336.8,400,338.1z"/>
	<path class="st3" d="M384.6,222.1c-1.6,1.7-3.6,3.1-5.7,4c-0.4,0.1-0.6,0.6-0.4,1l0,0c0.2,0.4,0.6,0.6,1,0.4l0,0
		c2.4-1,4.5-2.5,6.3-4.4c0.4-0.4,0.6-0.9,0.6-1.5l0.5-0.1l0.7-0.2c2.6-0.7,4.9-2.1,6.7-4c0.5-0.5,0.6-1.2,0.5-1.8
		c-0.6-2.2-2-4-3.9-5.1c-1-0.6-2.2-1-3.4-1.1c1.7-2.1,1.3-5.2-0.8-6.8s-5.2-1.3-6.8,0.8c-1.7,2.1-1.3,5.2,0.8,6.8
		c0.4,0.3,0.7,0.5,1.1,0.7c-1,0.7-1.8,1.5-2.4,2.6c-1-0.4-2-0.6-3.1-0.6c2.3-2.5,2.2-6.5-0.4-8.8c-2.5-2.3-6.5-2.2-8.8,0.4
		c-2.3,2.5-2.2,6.5,0.4,8.8c0.7,0.6,1.5,1.1,2.3,1.4c-4,2.6-5.9,7.4-4.7,12c0.2,0.8,0.8,1.4,1.5,1.6c3,0.9,6.2,1.1,9.2,0.5l0,0
		c0.4-0.1,0.7-0.5,0.6-0.9s-0.5-0.7-0.9-0.6c-2.8,0.6-5.7,0.4-8.5-0.4c-0.3-0.1-0.5-0.3-0.5-0.6c-1.5-5,1.4-10.3,6.4-11.7
		s10.3,1.4,11.7,6.4c0.1,0.2,0.1,0.4,0.1,0.5C384.9,221.6,384.8,221.9,384.6,222.1C383,223.8,384.8,221.9,384.6,222.1z M367.1,209.8
		c-0.7-2.5,0.9-5.1,3.4-5.8s5.1,0.9,5.8,3.4c0.7,2.5-0.9,5.1-3.4,5.8C370.4,213.8,367.8,212.3,367.1,209.8z M382.7,203.1
		c1.8-0.5,3.6,0.6,4.1,2.4c0.5,1.8-0.6,3.6-2.4,4.1l0,0c-1.8,0.5-3.6-0.5-4.1-2.3S380.8,203.7,382.7,203.1
		C382.6,203.1,382.7,203.1,382.7,203.1L382.7,203.1z M384,211.3c0.3-0.1,0.5-0.2,0.8-0.3c3.7-1,7.5,1.3,8.4,4.9c0,0.1,0,0.3-0.1,0.4
		c-1.6,1.7-3.7,3-6,3.6l-0.6,0.1l-0.5,0.1c-0.9-2.5-2.6-4.6-4.8-5.9l-0.5-0.3C381.5,212.8,382.6,211.9,384,211.3L384,211.3z"/>
	<text transform="matrix(0.9713 -0.2379 0.2379 0.9713 366.1307 266.0208)" class="st7 st20 st21">WELCOME</text>
</g>
</svg>
