<?xml version="1.0" encoding="utf-8"?>
<!-- Generator: Adobe Illustrator 24.1.1, SVG Export Plug-In . SVG Version: 6.00 Build 0)  -->
<svg version="1.1" id="Layer_1" xmlns="http://www.w3.org/2000/svg" xmlns:xlink="http://www.w3.org/1999/xlink" x="0px" y="0px"
	 viewBox="0 0 500 500" style="enable-background:new 0 0 500 500;" xml:space="preserve">
<style type="text/css">
	.st0{fill:#EBEBEB;}
	.st1{fill:#FFFFFF;}
	.st2{fill:#DBDBDB;}
	.st3{fill:#A6A6A6;}
	.st4{fill:#263238;}
	.st5{fill:#37474F;}
	.st6{fill:#79C0FE;}
	.st7{fill:#EB9481;}
	.st8{fill:#455A64;}
	.st9{fill:#52AEFD;}
	.st10{fill:#90CAF9;}
	.st11{fill:#FF9ABB;}
	.st12{font-family:'Arciform';}
	.st13{font-size:6px;}
	.st14{font-size:5px;}
	.st15{font-size:14px;}
	.st16{letter-spacing:2;}
</style>
<g id="freepik--background-complete--inject-81">
	<rect x="47" y="40.9" class="st0" width="136.1" height="207.6"/>
	<rect x="125.5" y="49.2" class="st1" width="57.5" height="92.3"/>
	<rect x="61.7" y="49.2" class="st1" width="57.5" height="92.3"/>
	<rect x="125.5" y="147.8" class="st1" width="57.5" height="92.3"/>
	<rect x="61.7" y="147.8" class="st1" width="57.5" height="92.3"/>
	<polygon class="st2" points="99.5,40.9 47,40.9 47,337.9 77.4,337.9 56.2,186.8 	"/>
	<polygon class="st0" points="90.4,48.9 82.1,83.4 73.6,117.9 56.6,186.9 56.7,186.7 64.5,258.8 68.4,294.8 72.2,330.8 67.9,294.8 
		63.8,258.8 55.7,186.8 55.7,186.7 55.7,186.6 72.9,117.8 81.6,83.3 	"/>
	<polygon class="st0" points="50.1,55 50.3,84.8 50.5,114.6 50.6,174.1 50.5,233.7 50.3,263.5 50.1,293.3 49.9,263.5 49.7,233.7 
		49.6,174.1 49.7,114.6 49.9,84.8 	"/>
	<path class="st0" d="M59.9,60.6l-1.6,31.7l-1.8,31.7L53,187.2l0,0c0.3,11.8,0.6,23.5,0.9,35.3l0.8,35.3l0.8,35.3l0.7,35.3L55,293
		l-1-35.3l-1-35.3c-0.3-11.8-0.7-23.5-1-35.3l0,0l3.9-63.2l2-31.6L59.9,60.6z"/>
	<path class="st0" d="M66.8,323.6l-3.4-34.2L60,255.3c-2.1-22.8-4.3-45.6-6.4-68.4v-0.1l9.7-53.2l4.9-26.6l5-26.6l-4.6,26.7
		L64,133.7L54.5,187v-0.1c2.2,22.8,4.2,45.6,6.3,68.4l3,34.2L66.8,323.6z"/>
	<rect x="47" y="184.3" class="st2" width="11.9" height="6.9"/>
	<polygon class="st2" points="130.6,40.9 183.1,40.9 183.1,337.9 152.7,337.9 173.9,186.8 	"/>
	<polygon class="st0" points="139.6,48.9 148.4,83.3 157.1,117.8 174.4,186.6 174.4,186.7 174.4,186.8 166.2,258.8 162.1,294.8 
		157.9,330.8 161.6,294.8 165.5,258.8 173.4,186.7 173.4,186.9 156.4,117.9 148,83.4 	"/>
	<polygon class="st0" points="179.9,55 180.2,84.8 180.3,114.6 180.4,174.1 180.3,233.7 180.2,263.5 179.9,293.3 179.7,263.5 
		179.5,233.7 179.4,174.1 179.5,114.6 179.7,84.8 	"/>
	<path class="st0" d="M170.1,60.6l2.1,31.6l2,31.6l3.8,63.3l0,0c-0.3,11.8-0.6,23.5-1,35.3l-1,35.3l-1,35.4l-1.2,35.3l0.7-35.3
		l0.8-35.3l0.8-35.3c0.3-11.8,0.5-23.5,0.9-35.3l0,0l-3.6-63.3l-1.8-31.7L170.1,60.6z"/>
	<path class="st0" d="M163.3,323.6l2.9-34.2l3-34.2c2.1-22.8,4.1-45.6,6.3-68.4v0.2l-9.5-53.3l-4.7-26.6l-4.6-26.7l5,26.6l4.9,26.6
		l9.7,53.2v0.1c-2.1,22.8-4.3,45.6-6.4,68.4l-3.3,34.2L163.3,323.6z"/>
	<rect x="171.2" y="184.3" class="st2" width="11.9" height="6.9"/>
	<path class="st0" d="M336.9,269.2v137.3h83V269.2H336.9z M412.3,355.8h-67.9V320h67.9V355.8z M412.3,311.5h-67.9v-35.7h67.9V311.5z
		"/>
	<rect x="419.8" y="269.2" class="st2" width="33.2" height="137.3"/>
	<rect x="344.4" y="275.8" class="st2" width="16.1" height="35.7"/>
	<path class="st2" d="M412.8,398.3h-68.5v-35.1h68.5V398.3z M345.3,397.3h66.5v-33.1h-66.5V397.3z"/>
	<rect x="369" y="373.3" class="st2" width="13.4" height="6.8"/>
	<path class="st2" d="M386.9,380.1h-14.4v-6.8h14.4V380.1z M373.5,379.1h12.4v-4.8h-12.4V379.1z"/>
	<rect x="344.4" y="320.1" class="st2" width="16.1" height="35.7"/>
	<path class="st3" d="M418.9,211.6c9.5,9.3,11.1,23.7,9.1,36.3c0,0.3-0.5,0.2-0.5-0.1c0-2.9,0.1-5.7,0.1-8.5l-0.1-0.4
		c-2.6-1.7-4.7-4-6.2-6.6c-1.6-3.1-2.2-6.6-3.4-9.9c-0.1-0.3,0.2-0.2,0.4-0.1c5.8,4.3,7.6,8.9,9.3,15c0-3.2-0.4-6.4-1-9.5
		c-1.3-5.8-3.7-11.6-7.9-15.9c-0.1-0.1-0.1-0.2,0-0.3C418.7,211.6,418.8,211.6,418.9,211.6L418.9,211.6z"/>
	<path class="st2" d="M417.1,212.7c-1.6,0.1-2.6,2.7-3.9,3.4c-0.5,0.4-1.3,0.4-1.7-0.2c0,0,0,0,0,0c0,0-0.1-0.1-0.1-0.1
		c-1.3-1.8,0.5-3.9,2.1-5.1c-1.2,0.5-2.1,1.3-3.4,1.6c-0.6,0.2-1.3-0.1-1.5-0.8c0,0,0,0,0,0c0,0,0-0.1,0-0.1
		c-0.5-2.4,2.5-3.5,4.5-3.5c-1-0.7-3.9-2.6-2.4-3.5s4.9,1.8,6,2.7c1.6,1.3,3.5,3.3,3.6,5.3C420.5,214.7,418.4,213.2,417.1,212.7z"/>
	<path class="st0" d="M417.6,213.1c-2.1-0.9-6.1,0.4-6.5-0.4c-0.7-1.6,2.5-2.7,4.3-2.9c-1.6-0.4-4.6-1.1-4.6-2.6
		c0.1-1.9,4.7-0.3,7,1.5c2.9,2.2,2.9,4.4,2.4,4.8C419.6,214.1,417.9,213.3,417.6,213.1z"/>
	<path class="st3" d="M440.5,210.7c-9.8,8.9-12,23.2-10.5,35.9c0,0.3,0.5,0.2,0.5,0c0.1-2.9,0.1-5.7,0.3-8.5
		c0.1-0.1,0.1-0.3,0.2-0.4c2.6-1.6,4.8-3.8,6.4-6.4c1.7-3.1,2.5-6.6,3.8-9.8c0.1-0.3-0.2-0.2-0.4-0.1c-5.9,4-8,8.6-9.8,14.6
		c0.2-3.2,0.6-6.4,1.4-9.5c1.5-5.8,4.1-11.4,8.5-15.6C440.9,210.8,440.7,210.6,440.5,210.7z"/>
	<path class="st2" d="M442.3,211.9c1.6,0.1,2.6,2.8,3.8,3.6c0.5,0.5,1.3,0.4,1.7-0.1c0,0,0,0,0,0c0,0,0.1-0.1,0.1-0.1
		c1.3-1.7-0.3-4-1.9-5.2c1.1,0.5,2.1,1.4,3.3,1.7c0.6,0.2,1.3-0.1,1.5-0.7c0-0.1,0-0.1,0-0.2c0.6-2.4-2.3-3.6-4.4-3.7
		c1-0.6,4-2.4,2.5-3.4s-5,1.6-6.1,2.4c-1.7,1.3-3.7,3.1-3.8,5.2C438.9,213.7,441,212.3,442.3,211.9z"/>
	<path class="st0" d="M441.8,212.3c2.1-0.9,6.1,0.6,6.5-0.1c0.8-1.6-2.4-2.8-4.1-3.1c1.6-0.4,4.7-0.9,4.6-2.5c0-1.9-4.7-0.4-7,1.2
		c-3,2.1-3.1,4.3-2.6,4.7C439.8,213.1,441.4,212.4,441.8,212.3z"/>
	<path class="st3" d="M430.5,234.3c-0.7,4.8-1.7,9.5-3,14.1c0,0.2-0.2,0.3-0.4,0.3c0,0,0,0,0,0c-0.2,0-0.3-0.2-0.3-0.4c0,0,0,0,0,0
		c0.6-4.4,1.8-8.6,2.5-13c0.7-4.4,1-8.9,0.8-13.3c-0.4-7.3-2.4-15.1-7.2-20.9c-0.1-0.1,0.1-0.3,0.2-0.2c9.6,11.2,8.1,24.9,8,26.1
		c1.4-4.6,2.8-9.9,7.9-14.6c0.2-0.2,0.4-0.1,0.4,0.2c-0.9,8.6-3.3,13.1-8.3,17.6C430.9,231.6,430.7,233,430.5,234.3z"/>
	<path class="st2" d="M422.7,202.4c-1.7-0.8-4.1,1.4-5.8,1.6c-0.7,0.2-1.5-0.3-1.7-1v-0.2c-0.4-2.5,2.5-3.8,4.8-4.3
		c-1.5-0.1-2.9,0.3-4.3-0.1c-0.7-0.1-1.3-0.8-1.2-1.6c0-0.1,0-0.1,0-0.2c0.6-2.8,4.3-2.4,6.5-1.4c-0.7-1.2-2.7-4.6-0.7-4.8
		s4.2,4.3,4.9,5.8c1,2.2,2,5.2,1.1,7.3C425.2,206.1,423.7,203.6,422.7,202.4z"/>
	<path class="st0" d="M423,203.1c-1.7-2-6.5-2.6-6.5-3.6c0.1-2,4-1.6,5.9-0.9c-1.4-1.3-4.3-3.5-3.4-5c1.1-1.9,5,2.1,6.5,5.1
		c1.9,3.8,0.8,6,0.1,6.2C424.5,205.1,423.3,203.4,423,203.1z"/>
	<path class="st0" d="M436.8,236.9l4.2,32.3h-25.7c0.5-2.9,5.3-32.3,5.3-32.3L436.8,236.9z"/>
</g>
<g id="freepik--Shadow--inject-81">
	<path class="st0" d="M448.3,439.2c0,11.3-88.8,20.4-198.3,20.4s-198.3-9.1-198.3-20.4s88.8-20.4,198.3-20.4S448.3,428,448.3,439.2z
		"/>
</g>
<g id="freepik--Floor--inject-81">
	<polygon class="st4" points="47,406.4 97.7,406.2 148.5,406.1 250,406 351.5,406.1 402.3,406.2 453,406.4 402.3,406.7 351.5,406.8 
		250,406.9 148.5,406.8 97.7,406.7 	"/>
</g>
<path class="st5" d="M334.5,61.9H165.5c-9.5,0.1-17.2,7.9-17.1,17.4c0,0,0,0,0,0l0,0v348c-0.1,9.5,7.6,17.3,17.1,17.4h169.1
	c9.5-0.1,17.2-7.9,17.1-17.4v-348C351.7,69.8,344.1,62,334.5,61.9C334.5,61.9,334.5,61.9,334.5,61.9z M340.9,416.6
	c0,9.2-6.9,16.6-15.3,16.6H174.4c-8.5,0-15.3-7.4-15.3-16.6V92.5c0-18.7,6.9-19.5,15.3-19.5h30.3c1.8,0,3.2,2,3.2,4.5v1.1
	c0,5.8,3.2,5.8,7.1,5.8h70c3.9,0,7.1,0,7.1-5.8v-1.1c0-2.5,1.4-4.5,3.2-4.5h30.3c8.5,0,15.3,2.5,15.3,19.6L340.9,416.6z"/>
<path class="st0" d="M340.9,92.5v324.1c0,9.2-6.9,16.6-15.3,16.6H174.4c-8.5,0-15.3-7.4-15.3-16.6V92.5c0-18.7,6.9-19.5,15.3-19.5
	h30.3c1.8,0,3.2,2,3.2,4.5v1.1c0,5.8,3.2,5.8,7.1,5.8h70c3.9,0,7.1,0,7.1-5.8v-1.1c0-2.5,1.4-4.5,3.2-4.5h30.3
	C334.1,73,340.9,75.4,340.9,92.5z"/>
<path class="st6" d="M340.9,92.5v136.2H159V92.5c0-18.7,6.9-19.5,15.4-19.5h30.3c1.8,0,3.2,2,3.2,4.5v1.1c0,5.8,3.2,5.8,7.1,5.8h70
	c3.9,0,7.1,0,7.1-5.8v-1.1c0-2.5,1.4-4.5,3.2-4.5h30.3C334.1,73,340.9,75.4,340.9,92.5z"/>
<g id="freepik--u5Zjqx--inject-81">
	<path class="st1" d="M199.4,80.2l-0.3,0.3c-0.1,0-0.1,0.1-0.2,0.2c-1.6-1.6-4.1-1.6-5.6,0l-0.2-0.2l-0.3-0.3l0,0l0.4-0.3
		c0.3-0.2,0.6-0.4,0.9-0.6c0.4-0.2,0.7-0.3,1.1-0.4c0.2,0,0.4,0,0.6-0.1h0.9c0.3,0,0.7,0.1,1,0.3c0.2,0.1,0.5,0.2,0.7,0.3
		c0.2,0.1,0.5,0.3,0.7,0.5L199.4,80.2L199.4,80.2z"/>
	<path class="st1" d="M194.3,81.6c-0.1-0.2-0.3-0.3-0.5-0.5c1.3-1.3,3.4-1.3,4.7,0c0,0,0,0,0,0l0,0l-0.5,0.5
		C197,80.6,195.3,80.6,194.3,81.6C194.3,81.6,194.3,81.6,194.3,81.6z"/>
	<path class="st1" d="M197.6,82.1l-0.5,0.5c-0.3-0.3-0.6-0.4-1-0.4c-0.4,0-0.7,0.1-1,0.4l-0.5-0.5C195.4,81.3,196.7,81.2,197.6,82.1
		C197.5,82,197.5,82,197.6,82.1L197.6,82.1z"/>
	<path class="st1" d="M196.6,83c0,0.2-0.2,0.4-0.4,0.4l0,0l0,0c-0.2,0-0.4-0.1-0.5-0.3c0-0.2,0.1-0.4,0.4-0.5l0,0c0,0,0.1,0,0.1,0
		C196.4,82.6,196.6,82.8,196.6,83L196.6,83L196.6,83z"/>
</g>
<path class="st1" d="M170.9,81.1c0-0.7,0.5-1.2,1.2-1.2c0.7,0,1.2,0.5,1.2,1.2c0,0.7-0.5,1.2-1.2,1.2S170.9,81.8,170.9,81.1
	C170.9,81.1,170.9,81.1,170.9,81.1z"/>
<path class="st1" d="M174.7,81.1c0-0.7,0.5-1.2,1.2-1.2c0.7,0,1.2,0.5,1.2,1.2c0,0.7-0.5,1.2-1.2,1.2S174.7,81.8,174.7,81.1
	C174.7,81.1,174.7,81.1,174.7,81.1z"/>
<path class="st1" d="M178.5,81.1c0-0.7,0.5-1.2,1.2-1.2c0.7,0,1.2,0.5,1.2,1.2c0,0.7-0.5,1.2-1.2,1.2l0,0
	C179,82.3,178.5,81.8,178.5,81.1L178.5,81.1z"/>
<path class="st1" d="M182.3,81.1c0-0.7,0.5-1.2,1.2-1.2c0.7,0,1.2,0.5,1.2,1.2c0,0.7-0.5,1.2-1.2,1.2l0,0
	C182.8,82.3,182.3,81.8,182.3,81.1L182.3,81.1z"/>
<path class="st1" d="M186.1,81.1c0-0.7,0.5-1.2,1.2-1.2c0.7,0,1.2,0.5,1.2,1.2c0,0.7-0.5,1.2-1.2,1.2S186.1,81.8,186.1,81.1
	C186.1,81.1,186.1,81.1,186.1,81.1z"/>
<path class="st1" d="M327.3,83.8h-9.8v-4.5h9.8V83.8z M318,83.3h8.8v-3.5H318L318,83.3z"/>
<rect x="318.3" y="80" class="st1" width="6.3" height="3"/>
<rect x="327.3" y="80.3" class="st1" width="0.9" height="2.4"/>
<polygon class="st1" points="176.3,110.7 170.9,105.7 176.3,100.6 177.1,101.5 172.7,105.7 177.1,109.8 "/>
<path class="st1" d="M271,190.9c-3.6,2.2-7.5,3.9-11.5,4.8c-21.5,5.3-43.2-7.9-48.5-29.4c-5.3-21.5,7.9-43.2,29.4-48.5
	s43.2,7.9,48.5,29.4C293,164.2,285.8,181.8,271,190.9z"/>
<path class="st6" d="M262.2,152.3c0,6.7-5.5,12.2-12.2,12.2c-6.7,0-12.2-5.5-12.2-12.2c0-6.7,5.5-12.2,12.2-12.2c0,0,0,0,0,0l0,0
	C256.7,140.1,262.2,145.6,262.2,152.3z"/>
<path class="st6" d="M271,189.3v5.8c-12.9,9.3-29.2,9.3-42.1,0v-5.8c0-13.5,9.4-24.4,21.1-24.4C261.6,164.9,271,175.8,271,189.3
	L271,189.3z"/>
<rect x="178.5" y="214.9" class="st1" width="143" height="138.8"/>
<polygon class="st2" points="194.6,281.7 208.5,281.6 222.3,281.5 250,281.4 277.7,281.5 291.5,281.6 305.4,281.7 291.5,281.9 
	277.7,282 250,282.1 222.3,282 208.5,281.9 "/>
<path class="st4" d="M195.8,308.9l-0.6,0.4h-0.1c-0.1,0-0.1-0.1-0.1-0.1c0-0.1,0.1-0.1,0.1-0.1l0.6-0.3l-0.6-0.3
	c0,0-0.1-0.1-0.1-0.1c0-0.1,0.1-0.1,0.1-0.1h0.1l0.6,0.4l-0.1-0.7c0-0.1,0-0.1,0.1-0.1c0,0,0,0,0,0l0,0c0.1,0,0.1,0.1,0.1,0.1l0,0
	l-0.1,0.7l0.5-0.4h0.1c0.1,0,0.1,0.1,0.1,0.1c0,0.1,0,0.1-0.1,0.1l-0.6,0.3l0.6,0.3c0.1,0,0.1,0.1,0.1,0.1c0,0.1,0,0.1-0.1,0.1
	c0,0,0,0,0,0h-0.1l-0.5-0.4l0.1,0.6c0,0.1,0,0.1-0.1,0.1c0,0,0,0,0,0l0,0c-0.1,0-0.1-0.1-0.1-0.1l0,0L195.8,308.9z"/>
<path class="st4" d="M198.4,308.9l-0.6,0.4h-0.1c-0.1,0-0.1-0.1-0.1-0.1c0-0.1,0.1-0.1,0.1-0.1l0.6-0.3l-0.6-0.3
	c-0.1,0-0.1-0.1-0.1-0.1c0-0.1,0.1-0.1,0.1-0.1h0.1l0.6,0.4V308c0-0.1,0-0.1,0.1-0.1c0,0,0,0,0,0l0,0c0.1,0,0.1,0.1,0.1,0.1l0,0
	l-0.1,0.7l0.5-0.4h0.1c0.1,0,0.1,0.1,0.1,0.1c0,0.1,0,0.1-0.1,0.1l-0.6,0.3l0.6,0.3c0.1,0,0.1,0.1,0.1,0.1c0,0.1,0,0.1-0.1,0.1
	c0,0,0,0,0,0h-0.1l-0.5-0.4l0.1,0.6c0,0.1,0,0.1-0.1,0.1c0,0,0,0,0,0l0,0c-0.1,0-0.1-0.1-0.1-0.1l0,0L198.4,308.9z"/>
<path class="st4" d="M201,308.9l-0.6,0.4h-0.1c-0.1,0-0.1-0.1-0.1-0.1c0-0.1,0.1-0.1,0.1-0.1c0,0,0,0,0,0l0.6-0.3l-0.6-0.3
	c0,0-0.1-0.1-0.1-0.1c0-0.1,0.1-0.1,0.1-0.1h0.1l0.6,0.4V308c0-0.1,0-0.1,0.1-0.1c0,0,0,0,0,0l0,0c0.1,0,0.1,0.1,0.1,0.1l0,0
	l-0.1,0.7l0.6-0.4h0.1c0.1,0,0.1,0.1,0.1,0.1c0,0.1,0,0.1-0.1,0.1l-0.6,0.3l0.6,0.3c0.1,0,0.1,0.1,0.1,0.1c0,0.1,0,0.1-0.1,0.1
	c0,0,0,0,0,0h-0.1l-0.6-0.4l0.1,0.6c0,0.1,0,0.1-0.1,0.1c0,0,0,0,0,0l0,0c-0.1,0-0.1-0.1-0.1-0.1l0,0L201,308.9z"/>
<path class="st4" d="M203.6,308.9l-0.6,0.4h-0.1c-0.1,0-0.1-0.1-0.1-0.1c0-0.1,0.1-0.1,0.1-0.1l0.6-0.3l-0.6-0.3
	c-0.1,0-0.1-0.1-0.1-0.1c0-0.1,0.1-0.1,0.1-0.1h0.1l0.6,0.4l-0.1-0.7c0-0.1,0-0.1,0.1-0.1c0,0,0,0,0,0l0,0c0.1,0,0.1,0.1,0.1,0.1
	l0,0l-0.1,0.7l0.5-0.4h0.1c0.1,0,0.1,0.1,0.1,0.1c0,0.1,0,0.1-0.1,0.1l-0.6,0.3l0.6,0.3c0.1,0,0.1,0.1,0.1,0.1c0,0.1,0,0.1-0.1,0.1
	c0,0,0,0,0,0h-0.1l-0.5-0.4l0.1,0.6c0,0.1,0,0.1-0.1,0.1c0,0,0,0,0,0l0,0c-0.1,0-0.1-0.1-0.1-0.1l0,0L203.6,308.9z"/>
<path class="st4" d="M206.2,308.9l-0.6,0.4h-0.1c-0.1,0-0.1-0.1-0.1-0.1c0-0.1,0.1-0.1,0.1-0.1l0.6-0.3l-0.6-0.3
	c0,0-0.1-0.1-0.1-0.1c0-0.1,0.1-0.1,0.1-0.1h0.1l0.6,0.4V308c0-0.1,0-0.1,0.1-0.1c0,0,0,0,0,0l0,0c0.1,0,0.1,0.1,0.1,0.1l0,0v0.7
	l0.5-0.4h0.1c0.1,0,0.1,0.1,0.1,0.1c0,0.1,0,0.1-0.1,0.1l-0.6,0.3l0.6,0.3c0.1,0,0.1,0.1,0.1,0.1c0,0.1,0,0.1-0.1,0.1c0,0,0,0,0,0
	H207l-0.5-0.4v0.6c0,0.1,0,0.1-0.1,0.1c0,0,0,0,0,0l0,0c-0.1,0-0.1-0.1-0.1-0.1l0,0L206.2,308.9z"/>
<path class="st4" d="M208.7,308.9l-0.6,0.4h-0.1c-0.1,0-0.1-0.1-0.1-0.1c0-0.1,0.1-0.1,0.1-0.1c0,0,0,0,0,0l0.6-0.3l-0.6-0.3
	c-0.1,0-0.1-0.1-0.1-0.1c0-0.1,0.1-0.1,0.1-0.1h0.1l0.6,0.4l-0.1-0.7c0-0.1,0-0.1,0.1-0.1c0,0,0,0,0,0l0,0c0.1,0,0.1,0.1,0.1,0.1
	l0,0l-0.1,0.7l0.5-0.4h0.1c0.1,0,0.1,0.1,0.1,0.1c0,0.1,0,0.1-0.1,0.1l-0.6,0.3l0.6,0.3c0.1,0,0.1,0.1,0.1,0.1c0,0.1,0,0.1-0.1,0.1
	c0,0,0,0,0,0h-0.1l-0.5-0.4l0.1,0.6c0,0.1,0,0.1-0.1,0.1c0,0,0,0,0,0l0,0c-0.1,0-0.1-0.1-0.1-0.1l0,0L208.7,308.9z"/>
<path class="st4" d="M211.3,308.9l-0.5,0.4h-0.1c-0.1,0-0.1-0.1-0.1-0.1c0-0.1,0.1-0.1,0.1-0.1c0,0,0,0,0,0l0.6-0.3l-0.6-0.3
	c0,0-0.1-0.1-0.1-0.1c0-0.1,0.1-0.1,0.1-0.1h0.1l0.5,0.4V308c0-0.1,0-0.1,0.1-0.1c0,0,0,0,0,0l0,0c0.1,0,0.1,0.1,0.1,0.1l0,0v0.7
	l0.5-0.4h0.1c0.1,0,0.1,0.1,0.1,0.1c0,0.1,0,0.1-0.1,0.1l-0.6,0.3l0.6,0.3c0.1,0,0.1,0.1,0.1,0.1c0,0.1,0,0.1-0.1,0.1c0,0,0,0,0,0
	h-0.1l-0.5-0.4v0.6c0,0.1,0,0.1-0.1,0.1c0,0,0,0,0,0l0,0c-0.1,0-0.1,0-0.1-0.1c0,0,0,0,0,0l0,0L211.3,308.9z"/>
<path class="st4" d="M213.9,308.9l-0.6,0.4h-0.1c-0.1,0-0.1-0.1-0.1-0.1c0-0.1,0.1-0.1,0.1-0.1l0.6-0.3l-0.6-0.3
	c-0.1,0-0.1-0.1-0.1-0.1c0-0.1,0.1-0.1,0.1-0.1h0.1l0.6,0.4l-0.1-0.7c0-0.1,0-0.1,0.1-0.1c0,0,0,0,0,0l0,0c0.1,0,0.1,0.1,0.1,0.1
	l0,0l-0.1,0.7l0.5-0.4h0.1c0.1,0,0.1,0.1,0.1,0.1c0,0.1,0,0.1-0.1,0.1l-0.6,0.3l0.6,0.3c0.1,0,0.1,0.1,0.1,0.1c0,0.1,0,0.1-0.1,0.1
	c0,0,0,0,0,0h-0.1l-0.5-0.4l0.1,0.6c0,0.1,0,0.1-0.1,0.1c0,0,0,0,0,0l0,0c-0.1,0-0.1-0.1-0.1-0.1l0,0L213.9,308.9z"/>
<path class="st4" d="M216.5,308.9l-0.6,0.4h-0.1c-0.1,0-0.1-0.1-0.1-0.1c0-0.1,0.1-0.1,0.1-0.1c0,0,0,0,0,0l0.6-0.3l-0.6-0.3
	c-0.1,0-0.1-0.1-0.1-0.1c0-0.1,0.1-0.1,0.1-0.1h0.1l0.6,0.4V308c0-0.1,0-0.1,0.1-0.1c0,0,0,0,0,0l0,0c0.1,0,0.1,0.1,0.1,0.1l0,0v0.7
	l0.5-0.4h0.1c0.1,0,0.1,0.1,0.1,0.1c0,0.1,0,0.1-0.1,0.1l-0.6,0.3l0.6,0.3c0.1,0,0.1,0.1,0.1,0.1c0,0.1,0,0.1-0.1,0.1c0,0,0,0,0,0
	h-0.1l-0.5-0.4v0.6c0,0.1,0,0.1-0.1,0.1c0,0,0,0,0,0l0,0c-0.1,0-0.1-0.1-0.1-0.1l0,0L216.5,308.9z"/>
<path class="st4" d="M219.1,308.9l-0.6,0.4h-0.1c-0.1,0-0.1-0.1-0.1-0.1c0-0.1,0.1-0.1,0.1-0.1l0.6-0.3l-0.6-0.3
	c0,0-0.1-0.1-0.1-0.1c0-0.1,0.1-0.1,0.1-0.1h0.1l0.6,0.4L219,308c0-0.1,0-0.1,0.1-0.1c0,0,0,0,0,0l0,0c0.1,0,0.1,0.1,0.1,0.1l0,0
	l-0.1,0.7l0.5-0.4h0.1c0.1,0,0.1,0.1,0.1,0.1c0,0.1,0,0.1-0.1,0.1l-0.6,0.3l0.6,0.3c0.1,0,0.1,0.1,0.1,0.1c0,0.1,0,0.1-0.1,0.1
	c0,0,0,0,0,0h-0.1l-0.5-0.4l0.1,0.6c0,0.1,0,0.1-0.1,0.1c0,0,0,0,0,0l0,0c-0.1,0-0.1-0.1-0.1-0.1l0,0L219.1,308.9z"/>
<path class="st4" d="M221.6,308.9l-0.6,0.4H221c-0.1,0-0.1-0.1-0.1-0.1c0-0.1,0.1-0.1,0.1-0.1l0.6-0.3l-0.6-0.3
	c-0.1,0-0.1-0.1-0.1-0.1c0-0.1,0.1-0.1,0.1-0.1h0.1l0.6,0.4V308c0-0.1,0-0.1,0.1-0.1c0,0,0,0,0,0l0,0c0.1,0,0.1,0.1,0.1,0.1l0,0v0.7
	l0.6-0.4h0.1c0.1,0,0.1,0.1,0.1,0.1c0,0.1,0,0.1-0.1,0.1l-0.6,0.3l0.6,0.3c0.1,0,0.1,0.1,0.1,0.1c0,0.1,0,0.1-0.1,0.1c0,0,0,0,0,0
	h-0.1l-0.6-0.4v0.6c0,0.1,0,0.1-0.1,0.1c0,0,0,0,0,0l0,0c-0.1,0-0.1-0.1-0.1-0.1l0,0L221.6,308.9z"/>
<polygon class="st2" points="194.6,315.5 208.5,315.3 222.3,315.2 250,315.1 277.7,315.2 291.5,315.3 305.4,315.5 291.5,315.7 
	277.7,315.8 250,315.9 222.3,315.8 208.5,315.7 "/>
<rect x="223.2" y="304.5" class="st4" width="0.5" height="9"/>
<rect x="209.3" y="340.9" class="st6" width="81.5" height="25.6"/>
<path class="st1" d="M236.3,357v-5.3c0-0.3,0.2-0.5,0.5-0.5s0.5,0.2,0.5,0.5v4.8h2.4c0.3,0,0.5,0.2,0.5,0.5s-0.2,0.5-0.5,0.5h-2.9
	C236.5,357.5,236.3,357.3,236.3,357z"/>
<path class="st1" d="M245.9,352c1.2,1.3,1.2,3.3,0,4.5c-0.5,0.6-1.3,1-2.1,1c-0.8,0-1.6-0.4-2.2-1c-1.2-1.3-1.2-3.3,0-4.5
	c0.6-0.6,1.4-1,2.2-1C244.6,351,245.4,351.4,245.9,352z M245.8,354.3c0-0.6-0.2-1.1-0.6-1.6c-0.7-0.8-1.9-0.9-2.7-0.1
	c0,0-0.1,0.1-0.1,0.1c-0.4,0.4-0.6,1-0.6,1.6c0,0.6,0.2,1.1,0.6,1.6c0.4,0.4,0.9,0.6,1.5,0.6c0.5,0,1.1-0.2,1.4-0.6
	C245.6,355.4,245.8,354.9,245.8,354.3z"/>
<path class="st1" d="M248.3,354.3c0-1.8,1.5-3.3,3.3-3.3c0,0,0,0,0,0l0,0c0.7,0,1.5,0.2,2.1,0.7c0.2,0.2,0.3,0.5,0.1,0.7
	c0,0,0,0,0,0l0,0c-0.2,0.2-0.5,0.3-0.7,0.1c-0.4-0.3-0.9-0.5-1.4-0.5c-0.6,0-1.2,0.2-1.6,0.7c-0.4,0.4-0.7,1-0.7,1.6
	c0,0.6,0.2,1.1,0.7,1.5c0.4,0.4,1,0.7,1.6,0.7c0.4,0,0.9-0.1,1.2-0.3v-1.2h-1.3c-0.3,0-0.5-0.2-0.5-0.5c0-0.3,0.2-0.5,0.5-0.5h1.8
	c0.3,0,0.5,0.2,0.5,0.5c0,0,0,0,0,0l0,0v2.2l0,0c0,0.1-0.1,0.2-0.2,0.2c-0.6,0.4-1.3,0.7-2,0.7C249.9,357.5,248.4,356.1,248.3,354.3
	C248.3,354.3,248.3,354.3,248.3,354.3L248.3,354.3z"/>
<path class="st1" d="M256,351.7c0-0.3,0.2-0.5,0.4-0.5c0,0,0,0,0,0l0,0c0.3,0,0.5,0.2,0.5,0.5c0,0,0,0,0,0l0,0v5.3
	c0,0.3-0.2,0.5-0.5,0.5c-0.3,0-0.5-0.2-0.5-0.5l0,0V351.7z"/>
<path class="st1" d="M259.7,357c0,0.3-0.2,0.5-0.5,0.5s-0.5-0.2-0.5-0.5v-5.2l0,0c0-0.2,0.1-0.3,0.2-0.4c0.2-0.2,0.5-0.1,0.7,0.1
	c0,0,0,0,0,0l2.9,4v-3.7c0-0.3,0.2-0.5,0.5-0.5s0.5,0.2,0.5,0.5v5.2c0,0.3-0.2,0.5-0.5,0.5c-0.1,0-0.3-0.1-0.4-0.2l0-0.1l-2.9-4
	L259.7,357z"/>
<path class="st1" d="M259.5,77.1h-19.1c-0.7,0-1.2-0.5-1.2-1.2l0,0c0-0.7,0.5-1.2,1.2-1.2h19.1c0.7,0,1.2,0.5,1.2,1.2l0,0
	C260.7,76.6,260.2,77.1,259.5,77.1z"/>
<path class="st4" d="M340.3,129.4l-0.4,0.1c0,0,0-0.1,0.1-0.1l0,0L340.3,129.4z"/>
<rect x="351.6" y="160.8" class="st7" width="0" height="7"/>
<path class="st7" d="M351.8,418.3h-0.2v-0.1L351.8,418.3z"/>
<path class="st7" d="M393.1,426.9c-2.2-1-50.6-44.8-51.4-47.6c-0.3-1.1,5.7-8.5,13.1-17.3c1.6-1.9,20.4-32,20.4-32l33.9,26.9
	l-23.1,33.3c0,0,11,25.1,11.6,28.3S395.3,427.8,393.1,426.9z"/>
<path class="st4" d="M393.7,407.9c1.5,3.4,2.9,6.9,4,10.5c0.5,3.2-2.4,9.4-4.6,8.5s-50.6-44.8-51.4-47.6c-0.3-0.9,3.6-5.9,9.1-12.5
	c9.8,11.4,40.6,46.7,42.9,43.4C394,409.5,394,408.7,393.7,407.9z"/>
<path class="st5" d="M358.1,356.4l34.3,28.3c0,0,47.7-66.4,49.1-90.7c1-18.7-26.7-53.5-45.5-83.2c-1.8-2.9-0.7-13.9-0.6-15.7
	l-37.3,0.1c-0.5,4.2-3.4,25.3,2.9,35.6c12.9,21.2,33.8,51.9,34.6,58.5S358.1,356.4,358.1,356.4z"/>
<path class="st4" d="M394.6,374.3c-5.5-4.6-3.8-3.4-9.4-8c-2.7-2.3-16.2-13.5-19.2-15.3c-0.1,0-0.1,0.1-0.1,0.1
	c2.2,2.5,16,13.5,18.8,15.7c5.6,4.5,4,3.1,9.7,7.5c0,0,0.1,0.1,0.1,0.1c0,0,0,0,0,0C394.6,374.4,394.7,374.4,394.6,374.3
	C394.7,374.3,394.7,374.3,394.6,374.3C394.7,374.3,394.6,374.2,394.6,374.3z"/>
<path class="st4" d="M398.9,283c-1.3-2.4-2.6-4.8-4-7.2c-2.8-4.8-5.9-9.4-8.9-14.1c-3.1-4.9-6.3-9.8-9.4-14.6
	c-2.8-4.4-5.7-8.8-8.1-13.4c-2.5-4.5-4.3-9.4-5.4-14.4c-1.1-5.5-0.9-11.2-0.4-16.8c0.1-1.4,0.3-2.8,0.4-4.2c0-0.2-0.4-0.3-0.4-0.1
	c-0.8,5.5-1,11-0.8,16.6c0.4,5.1,1.7,10,3.8,14.7c2.1,4.6,4.6,9.1,7.3,13.3c3,4.7,6,9.4,9,14.1c3,4.7,6.1,9.5,9.1,14.3
	c1.5,2.3,2.9,4.7,4.3,7.1c1.4,2.3,2.7,4.8,3.8,7.3c0.6,1.2,0.9,2.6,1,3.9c0.1,1.4-0.2,2.8-0.8,4.1c-1,2.6-2.3,5-3.6,7.5
	c-2.4,4.9-4.9,9.8-7.5,14.7c-5.1,9.8-19,32.8-19.7,34c0,0.1,0.1,0.2,0.1,0.1c5.9-9.4,13-20.4,18.4-30.1c2.7-4.9,5.2-9.8,7.7-14.7
	c1.3-2.5,2.5-5,3.7-7.5c1.1-2.3,2.4-4.6,2.4-7.2S400,285.3,398.9,283z"/>
<path class="st4" d="M394,195c-2.4,12.3-9.3,47.8-13.1,67.4c-6.5-10.4-14.1-22-19.9-31.7c-6.3-10.3-3.4-31.4-2.9-35.6L394,195z"/>
<path class="st7" d="M401.3,451.5c-2.3,0.7-67.6-0.2-70-1.8c-0.9-0.6-1.4-10.1-1.5-21.6c0-2.5,0.5-40.4,0.5-40.4l43.7,0.5l-2.1,40.4
	c0,0,24.8,11.5,27.4,13.6S403.6,450.8,401.3,451.5z"/>
<path class="st4" d="M389.3,436.9c3.4,1.6,6.7,3.3,9.9,5.3c2.5,2.1,4.4,8.6,2.1,9.4s-67.6-0.2-70-1.8c-0.8-0.5-1.2-6.8-1.4-15.4
	c14.8,2.1,61.4,8.3,60.9,4.3C390.7,438.3,390.1,437.6,389.3,436.9z"/>
<path class="st5" d="M395.4,195.1c0,0-7.4,36-7.8,37.1c-3.6,1.5-7.1,3.3-10.5,5.2l-2.6,183l-47.1,0.3c0,0,5.8-97,5.7-103.2
	c-0.3-10,4.1-77.6,3.5-79.3c-6.1-17.4,3.5-43,3.5-43L395.4,195.1z"/>
<path class="st4" d="M372.7,411.7c-13.3-0.6-39-0.3-42.3,0.2c-0.1,0-0.1,0.1,0,0.1c3.3,0.5,34.5,0.6,42.3-0.2
	C372.7,411.9,372.7,411.8,372.7,411.7C372.7,411.8,372.7,411.8,372.7,411.7C372.7,411.8,372.7,411.7,372.7,411.7z"/>
<path class="st4" d="M338,365.1c0.8-13.8,1.6-27.5,2.4-41.3s1.6-27.5,2.4-41.3c0.4-6.9,0.8-13.8,1.2-20.6l0.6-10.3
	c0.3-3.4,0.5-6.8,0.4-10.2c-0.2-3.7-1.8-7-2.8-10.6c-0.8-3.4-1.2-6.8-1.2-10.3c0-7.2,1.5-14.3,2.8-21.3c0.1-0.4,0.7-0.2,0.6,0.2
	c-1.6,6.4-2.6,13-2.9,19.6c-0.1,3.3,0.2,6.6,0.9,9.8c0.7,3.1,2,6,2.8,9s0.5,6.4,0.3,9.7c-0.2,3.4-0.4,6.9-0.6,10.3
	c-0.4,6.7-0.8,13.5-1.1,20.2c-1.6,27.4-3.1,54.8-4.8,82.1c-1,15.4-1.7,30.8-3,46.2c0,0.1-0.2,0.1-0.2,0
	C336.3,392.7,337.2,378.9,338,365.1z"/>
<path class="st4" d="M345.1,216.6c0.8-0.3,1.7-0.4,2.5-0.7c0.9-0.3,1.7-0.6,2.5-0.9c1.6-0.7,3-1.6,4.3-2.7c1.3-1.1,2.2-2.6,2.8-4.2
	c0.3-0.9,0.7-1.7,1-2.6c0.2-0.4,0.3-0.9,0.5-1.3c0.1-0.2,0.5-1.1,0.6-1.4c0,0-0.1,0-0.1,0h0c0,0,0-0.1,0-0.1c0-0.1,0.1-0.1,0.2-0.1
	c0,0,0.1,0,0.1,0.1c0.2,0.3,0,0.6-0.1,0.9c-0.1,0.6-0.3,1.1-0.4,1.7c-0.3,1-0.5,2-0.8,2.9c-0.4,1.8-1.4,3.5-2.8,4.8
	c-1.4,1.2-3.1,2.2-4.8,2.9c-0.9,0.4-1.8,0.6-2.8,0.8c-0.9,0.2-1.8,0.3-2.7,0.2C344.9,216.9,345,216.7,345.1,216.6z"/>
<path class="st4" d="M383.1,226.5c0.1-1.6,0.2-3.3,0.3-4.9c0.3-3.8,0.6-7.5,1.2-11.2c0-0.3,0.5-0.2,0.4,0.1
	c-0.2,2.9-0.5,5.8-0.7,8.8s-0.5,5.8-0.5,8.7c0,0.9,0.1,2.4,1.2,2.6c1.4,0.3,2.1-1.6,2.4-2.6c0.8-2.6,1.3-5.3,1.7-8
	c0.4-3.1,0.6-6.2,0.9-9.3c0-0.1,0.2-0.1,0.2,0c0.1,6.1,0.1,12.5-2,18.3c-0.3,1.2-1.3,2.2-2.5,2.5h-0.1v0.1c0,0-0.1,0.4-0.1,0.5
	s0,0.3-0.1,0.4s-0.1,0.6-0.2,0.9c0,0.1-0.1,0.2-0.3,0.2c-0.1,0-0.2-0.1-0.2-0.2c-0.1,0-0.1-0.1-0.1-0.2c0-0.6,0.1-1.2,0.4-1.7
	c-0.7-0.1-1.3-0.6-1.6-1.3C383,228.9,382.9,227.7,383.1,226.5z"/>
<path class="st4" d="M387.6,231.9c-4.6,2-9.1,4.5-13.3,7.3c-0.2,0.1,0,0.4,0.1,0.3c4.5-2.3,9.1-4.5,13.5-7c0.1-0.1,0.2-0.3,0.1-0.4
	c0,0,0,0,0,0C387.9,231.9,387.7,231.8,387.6,231.9z"/>
<path class="st4" d="M375.7,327.9c0-0.4,0.1-0.6,0.2-0.1c0.1,3,0.1,7.4,0.1,10.4V349c0,3.6-0.1,7.1-0.3,10.7l-0.2,5.4
	c-0.1,1.2,0,3.7-0.1,4.9c0,0.5-0.2,0.6-0.2,0.1c-0.1-1.8-0.1-3.2-0.1-5l0-5.4V349c0-3.6,0.1-7.1,0.3-10.7S375.5,331.5,375.7,327.9z"
	/>
<path class="st4" d="M399.2,144.3c0,0.3-0.1,0.5-0.4,0.6l-2.1,0.2c-2.1-5.2-4.3-9.4-3.7-7.8c0.9,2.6,1.5,5.2,1.6,7.9l-4.2,0.3
	c-2-9.3-4.4-16.1-4.2-14c0.9,8.6,0.5,11.3,0.1,14.3c-10.1,0.7-23.3,1.5-32.8,1.9c-1.3-5.1-2.5-10.7-2.7-10.3
	c-1.2,2.9-1.4,7.1-1.3,10.4c-3,0.1-5.5,0.1-7,0c0,0-0.9-4.3-1-5.7c-0.4-3.6-0.2-7.3,0.6-10.9c1-3.5,2.3-6.9,4-10.2v-0.1l0,0
	c1-2.2,1.8-4.4,2.3-6.8l0,0c0.3-1.7,0.5-3.4,0.6-5.2c0.2-6.4,3.3-11.9,8.8-13.7c10.1-10.9,20.8-6.6,24.4,1.4c0.3,0.8,0.7,1.7,1,2.7
	l0,0c1.2,3.6,2.4,8.4,3.4,12l0,0c0.4,1.4,0.9,2.8,1.4,4.2C391.1,122.5,397.4,126.1,399.2,144.3z"/>
<path class="st4" d="M355.6,97.3c-3.6,2-5.9,5.7-6.1,9.8c-0.1,2.7-0.4,5.3-1.1,7.9c-1,2.5-2.3,4.9-3.9,7c-2.6,3.3-4.1,7.3-4.3,11.5
	c-0.2,4.6,0.2,10.1,1.9,14.4l0,0c-1.3-4.9-1.7-10-1.1-15c0.6-5,3.1-8.3,5.7-12.2c2.1-3.1,3.3-6.7,3.6-10.4c0.2-2.3,0-4.7,0.8-6.8
	c0.9-2.6,2.9-4.3,4.9-5.8c0.1,0,0.2-0.2,0.1-0.3C355.9,97.2,355.8,97.2,355.6,97.3C355.6,97.2,355.6,97.2,355.6,97.3z"/>
<path class="st4" d="M394.6,122.9c-2.7-3.5-5.5-6.6-7.3-11c-1.5-4-2.5-8.3-4.1-12.3c0-0.1-0.1,0-0.1,0c2.5,7.2,3.2,14.4,7.8,20.4
	c2.5,3.2,5,6.2,6.7,10.2c1.8,4.1,2.8,8.5,3,13c0,0.1,0,0.1,0.1,0.1c0,0,0,0,0,0c0.1,0,0.1,0,0.1-0.1c0,0,0,0,0-0.1
	C401.3,135.8,399,128.7,394.6,122.9z"/>
<path class="st5" d="M418.9,103.2l-6.5,29.6c-0.3,0.9,0.2,1.6,1,1.5l15.2-0.5c0.9-0.1,1.8-0.7,2.1-1.6l6.5-29.6
	c0.3-0.9-0.2-1.6-1-1.5l-15.2,0.5C420.1,101.7,419.2,102.3,418.9,103.2z"/>
<path class="st8" d="M420.7,103.2l-6.5,29.6c-0.3,0.9,0.2,1.6,1,1.5l15.2-0.5c0.9-0.1,1.7-0.7,2-1.6l6.5-29.6c0.3-0.9-0.2-1.6-1-1.5
	l-15.2,0.5C421.9,101.6,421.1,102.3,420.7,103.2z"/>
<path class="st4" d="M424.9,104.4c0,0.7-0.6,1.3-1.3,1.3c0,0,0,0,0,0l0,0c-0.7,0-1.3-0.6-1.3-1.3c0-0.7,0.6-1.3,1.3-1.3
	C424.3,103.1,424.9,103.7,424.9,104.4z"/>
<path class="st7" d="M371.4,149.3c9,18.1,28.8,41.4,36.8,41.3c3.8,0,10.6,0.7,15.5-3.8c10.6-9.8,19.3-28.2,20.9-38.6
	c0.6-3.7-17.6-11.3-20.2-8.3c-6.1,7.2-13,21.2-14.1,21.2c-4.1-0.2-20.3-13.2-31.7-22.3C364.8,127.8,367.9,142.1,371.4,149.3z"/>
<path class="st7" d="M444.7,129.1c-2.1-7.5-3.8-9.1-2.2-16.3c1-4.8-1.5-7.5-4.8-3.6c-5.3,6.3-4.7,16.6-3.4,20L444.7,129.1z"/>
<path class="st7" d="M443.9,151.5c0,0,3.1-10.6,1.7-18.8c-1-5.7-4.5-17.8-20.6-23.8c-3.8-1.4-10.3-0.8-4.9,3.8
	c3.8,3.3,7.2,4.2,9.1,6.5c0,0-8.1,1.8-9.4,5.7c-1.1,3.4-2,6.8-2.6,10.4c0.6,0.3,1.3,0.5,1.9,0.7c0,0-0.9,3.7,2,8.8L443.9,151.5z"/>
<path class="st7" d="M443.7,127.5c-2.3-1.9-7.4-5.8-12.6-7.6c-5.8-2-17.6-4.2-19,0.1c-1,3.2,3.4,4.4,3.4,4.4s-5,0.1-5.4,3.2
	c-0.3,2.8,3.2,3.6,3.2,3.6s-3.1,0.6-2.8,3.3c0.3,3.3,6.6,1.5,9.8,4.6C421,139.7,443.7,127.5,443.7,127.5z"/>
<path class="st4" d="M430,126.3c-4.5-2.2-9.5-2.9-14.4-2.1c-0.1,0-0.2,0.1,0,0.1C420.4,124.5,425.3,125.1,430,126.3
	C430,126.4,430.1,126.4,430,126.3z"/>
<path class="st4" d="M427.9,132.2c-2.3-1-9.1-2.5-14.5-1.2c-0.1,0-0.2,0.1,0,0.1C418.2,130.9,423.1,131.3,427.9,132.2
	C427.9,132.2,427.9,132.2,427.9,132.2z"/>
<path class="st9" d="M379.7,165.7l15-15.7c0,0-11.2-10.2-19.4-14.2s-9.6,1.4-6.2,9.6S379.7,165.7,379.7,165.7z"/>
<path class="st0" d="M393.6,181.4l7,33.1c0,0-54.4,4.4-67.9,4.3c0,0,6.9-63.1,20.4-79.9c6.8-8.4,15.3-8.3,21.1-3.2
	c1.5,1.3,19.3,21.9,21.6,30.1C397.8,173,393.6,181.4,393.6,181.4z"/>
<path class="st10" d="M368.2,132.5h-5.8C364.3,132.1,366.3,132.1,368.2,132.5z"/>
<path class="st10" d="M374.1,135.7h-17.9c0.3-0.2,0.5-0.4,0.8-0.6h16.4C373.7,135.3,373.9,135.5,374.1,135.7z"/>
<path class="st10" d="M377,138.8h-23.8l0.5-0.6h22.9L377,138.8z"/>
<path class="st10" d="M379.7,142H351c0.1-0.2,0.2-0.4,0.4-0.6h27.9L379.7,142z"/>
<path class="st10" d="M382.3,145.1h-33c0.1-0.2,0.2-0.4,0.3-0.6h32.2L382.3,145.1z"/>
<path class="st10" d="M384.8,148.3h-37c0.1-0.2,0.2-0.4,0.3-0.6h36.2L384.8,148.3z"/>
<path class="st10" d="M387.2,151.5h-40.6l0.2-0.6h39.9L387.2,151.5z"/>
<path class="st10" d="M389.5,154.6h-44l0.2-0.6h43.4L389.5,154.6z"/>
<path class="st10" d="M391.6,157.8h-47.2l0.2-0.6h46.6L391.6,157.8z"/>
<path class="st10" d="M393.6,161h-50.1c0-0.2,0.1-0.4,0.2-0.6h49.6C393.4,160.6,393.5,160.8,393.6,161z"/>
<path class="st10" d="M395.2,164.1h-52.6c0-0.2,0.1-0.4,0.2-0.6h52.2C395,163.7,395.1,163.9,395.2,164.1z"/>
<path class="st10" d="M396.1,167.3h-54.3l0.1-0.6H396C396,166.9,396.1,167.1,396.1,167.3z"/>
<path class="st10" d="M396.3,169.8v0.6H341c0-0.2,0.1-0.4,0.1-0.6H396.3z"/>
<path class="st10" d="M396.1,173c0,0.2,0,0.4-0.1,0.6h-55.8c0-0.2,0.1-0.4,0.1-0.6H396.1z"/>
<path class="st10" d="M395.5,176.1c0,0.2-0.1,0.4-0.2,0.6h-55.8c0-0.2,0.1-0.4,0.1-0.6H395.5z"/>
<path class="st10" d="M394.5,179.3l-0.2,0.6h-55.3c0-0.2,0.1-0.4,0.1-0.6H394.5z"/>
<path class="st10" d="M393.9,183.1h-55.7c0-0.2,0.1-0.4,0.1-0.6h55.5L393.9,183.1z"/>
<path class="st10" d="M394.6,186.2h-57c0-0.2,0.1-0.4,0.1-0.6h56.8L394.6,186.2z"/>
<path class="st10" d="M395.3,189.4H337c0-0.2,0.1-0.4,0.1-0.6h58L395.3,189.4z"/>
<path class="st10" d="M396,192.5h-59.5c0-0.2,0.1-0.4,0.1-0.6h59.2L396,192.5z"/>
<path class="st10" d="M396.6,195.7H336c0-0.2,0-0.4,0.1-0.6h60.4L396.6,195.7z"/>
<path class="st10" d="M397.3,198.9h-61.9l0.1-0.6h61.6L397.3,198.9z"/>
<path class="st10" d="M398,202h-63c0-0.2,0.1-0.4,0.1-0.6h62.8L398,202z"/>
<path class="st10" d="M398.6,205.2h-64.2l0.1-0.6h64L398.6,205.2z"/>
<path class="st10" d="M399.3,208.3H334l0.1-0.6h65.1L399.3,208.3z"/>
<path class="st10" d="M400,211.5h-66.4c0-0.2,0.1-0.4,0.1-0.6h66.2L400,211.5z"/>
<path class="st10" d="M400.6,214.4l-2.5,0.2h-64.9c0-0.2,0-0.4,0.1-0.6h67.3L400.6,214.4z"/>
<path class="st10" d="M363.3,217.2c-3.1,0.2-6.1,0.4-9.1,0.6h-21.4c0-0.2,0-0.4,0.1-0.6H363.3z"/>
<path class="st4" d="M395.5,175.7c0.4-2,0.6-4,0.4-6c-0.5-4-1.9-7.9-4.1-11.4c-1.2-2-2.6-3.8-3.7-5.8 M388.2,152.5L388.2,152.5
	c1.1,1.3,2.1,2.7,3,4.1c0,0,0-0.1-0.1-0.1c-0.3-0.8-0.6-1.6-1-2.3c0-0.1,0.1-0.1,0.1-0.1c0.4,0.7,0.8,1.5,1.1,2.2
	c0.2,0.5,0.4,1,0.6,1.5c1.1,1.7,2.2,3.6,3,5.5c1.8,3.7,2.3,8,1.4,12c-0.6,2.2-1.5,4.3-2.7,6.2c0,0-0.1,0-0.1,0c0,0,0-0.1,0-0.1
	c0.9-1.8,1.5-3.7,2-5.6"/>
<path class="st7" d="M361.5,136.4c0.4,1,6.5,7.1,11.3,6.1c1.6-0.3,0.2-8.9,0.2-8.9v-0.7l0.6-9.2l-11.5-5.1l-1.6-0.7v10.4
	C360.7,131,361,133.7,361.5,136.4z"/>
<path class="st4" d="M360.6,123.6c2.6,4.8,7.2,8.2,12.5,9.3l0.6-9.2l-11.5-5.1l-1.6-0.7C360.6,117.9,360.6,120.5,360.6,123.6z"/>
<path class="st7" d="M385.1,109.8c1.7,16.2-7.8,19-11.3,19.3c-3.2,0.3-14,1-17.3-14.8s3.6-21.8,10.8-22.9S383.4,93.7,385.1,109.8z"
	/>
<path class="st4" d="M381.5,106.3c-0.4,0-0.7-0.1-1.1-0.1c-0.4,0-0.8-0.1-1.1-0.3c-0.2-0.2-0.2-0.5-0.1-0.7c0.3-0.4,0.9-0.6,1.4-0.5
	c0.5,0,1,0.2,1.4,0.6c0.2,0.2,0.2,0.6,0,0.9C381.9,106.3,381.7,106.3,381.5,106.3z"/>
<path class="st4" d="M370.9,107.6c0.4-0.1,0.7-0.2,1.1-0.3c0.4-0.1,0.7-0.3,1-0.6c0.1-0.2,0.1-0.5-0.1-0.7c-0.4-0.3-1-0.4-1.4-0.2
	c-0.5,0.1-1,0.4-1.2,0.9c-0.2,0.3-0.1,0.7,0.2,0.8c0,0,0,0,0,0C370.6,107.6,370.7,107.6,370.9,107.6z"/>
<path class="st4" d="M373.7,111.4c0,0-0.1,0.1-0.1,0.1c0.2,1.1,0.2,2.4-0.8,2.9v0.1C374.1,114.1,374.1,112.4,373.7,111.4z"/>
<path class="st4" d="M372.6,110.4c-1.8,0.1-1.5,3.7,0.2,3.6S374.1,110.3,372.6,110.4z"/>
<path class="st4" d="M371.9,110.7c-0.3,0.2-0.6,0.6-0.9,0.7s-0.8-0.3-1.1-0.6c0,0-0.1,0-0.1,0.1c0,0.7,0.4,1.4,1.1,1.4
	s1.1-0.6,1.2-1.3C372.2,110.7,372,110.6,371.9,110.7z"/>
<path class="st4" d="M379.8,110.6C379.9,110.6,379.9,110.6,379.8,110.6c0.1,1.2,0.4,2.4,1.4,2.7v0.1
	C380,113.3,379.7,111.7,379.8,110.6z"/>
<path class="st4" d="M380.7,109.4c1.8-0.3,2.2,3.3,0.6,3.5S379.2,109.6,380.7,109.4z"/>
<path class="st4" d="M381.5,109.5c0.3,0.2,0.6,0.5,1,0.4s0.6-0.4,0.8-0.8h0.1c0.1,0.7,0,1.4-0.7,1.6s-1.1-0.3-1.3-1
	C381.3,109.7,381.4,109.4,381.5,109.5z"/>
<path class="st4" d="M374.6,120.2c0.3,0.2,0.6,0.6,1,0.6c0.4,0,0.8-0.1,1.2-0.3c0,0,0.1,0,0,0.1c-0.3,0.5-0.8,0.7-1.4,0.7
	C375,121.1,374.7,120.7,374.6,120.2C374.5,120.2,374.6,120.2,374.6,120.2z"/>
<path class="st4" d="M378.8,115.8c0,0,0.4,1.6,0.5,2.4c0,0.1-0.2,0.1-0.4,0.2l0,0c-1.3,0.4-2.8,0-3.7-1c-0.1-0.1,0-0.2,0.1-0.1
	c1.1,0.6,2.3,0.8,3.5,0.6c0-0.2-0.8-2.8-0.6-2.8c0.6,0,1.2,0.1,1.8,0.2c-0.7-3.4-2-6.7-2.6-10c0-0.1,0-0.1,0.1-0.1c0,0,0.1,0,0.1,0
	c1.5,3.4,2.6,7,3.3,10.7C380.8,116.3,379.1,115.9,378.8,115.8z"/>
<path class="st4" d="M378.7,118.2c-0.4,0.6-0.9,1.2-1.5,1.6c-0.4,0.2-0.8,0.3-1.2,0.2c-0.9-0.1-1-0.9-1-1.6c0-0.4,0.1-0.7,0.2-1.1
	C376.3,117.9,377.5,118.2,378.7,118.2z"/>
<path class="st11" d="M377.1,119.7c-0.4,0.2-0.8,0.3-1.2,0.2c-0.9-0.1-1-0.9-1-1.6C375.9,118.3,376.8,118.8,377.1,119.7z"/>
<path class="st4" d="M357.8,113.6c3,0.5,4-6.3,4-6.3s12.7-1.6,14.2-11.9c1.4,4.3,4.4,7.8,8.4,9.9c0,0,0-11.3-8.9-13.9
	c0,0-10.9-4.5-17.5,4.1S355.8,113.3,357.8,113.6z"/>
<path class="st4" d="M376,94.7c0.1,1.6-0.2,3.2-0.8,4.7c-0.6,1.5-1.4,2.9-2.5,4.1c-0.3,0.3-0.6,0.6-0.9,0.8l-0.5,0.4l-0.5,0.3
	c-0.3,0.2-0.7,0.4-1,0.7c-0.4,0.2-0.7,0.4-1.1,0.5c-0.2,0.1-0.4,0.2-0.5,0.3l-0.6,0.2l-1.1,0.4c-0.8,0.2-1.5,0.3-2.3,0.4
	c0.7-0.3,1.5-0.5,2.2-0.8l1.1-0.5l0.5-0.2l0.5-0.3l1-0.6c0.3-0.2,0.6-0.4,0.9-0.7l0.5-0.3l0.4-0.4c0.3-0.2,0.6-0.5,0.8-0.8
	c1.6-1.7,2.8-3.8,3.4-6C375.7,96.2,375.9,95.5,376,94.7z"/>
<path class="st7" d="M359.6,115c0,0-3.6-5-5.9-3.7s0.5,8.6,3.2,9.6c1.4,0.6,3,0,3.6-1.4c0,0,0-0.1,0-0.1L359.6,115z"/>
<path class="st4" d="M354.5,113.5c1.9,0.7,2.9,2.5,3.7,4.3c-0.4-0.7-1.4-0.9-2.1-0.5c-0.1,0-0.1,0.1-0.2,0.1c0,0,0,0.1,0,0.1
	c0.7-0.2,1.4,0,1.9,0.6c0.4,0.5,0.7,1,0.9,1.5c0.1,0.2,0.4,0.1,0.3-0.1l0,0C359,117,357,113.6,354.5,113.5L354.5,113.5z"/>
<path class="st4" d="M359.3,95.4c1.5-0.5,2.8-8.7-2.5-12.5s-12.2,0.6-9.3,7.2C349.3,94.3,356.2,96.5,359.3,95.4z"/>
<path class="st4" d="M349.3,82.4c-1.6,1.3-2.7,3.1-3.1,5.1c-0.4,1.9,0.2,3.9,1.6,5.2c1.5,1.3,3.3,2.2,5.3,2.6c1,0.2,2,0.3,3,0.4
	c1,0.1,2.1,0,3.1-0.3c-0.9,0.5-2,0.8-3,0.9c-1.1,0.1-2.2,0.1-3.2-0.1c-2.2-0.2-4.3-1.2-5.9-2.6c-0.8-0.8-1.4-1.8-1.8-2.9
	c-0.3-1.1-0.2-2.3,0.1-3.4C345.9,85.2,347.4,83.4,349.3,82.4z"/>
<path class="st7" d="M352.1,140.2c-13.4,20.1-20.9,46.9-20,52.8c1.1,6.5,10.2,28.4,19.7,38.1c2.5,2.6,21.4-18.4,18.8-21.2
	c-4.9-5.5-14.7-21.6-15.1-25.2c-0.4-3.4,4.5-25.2,5.8-37.6C362.6,135.2,358.3,130.8,352.1,140.2z"/>
<path class="st7" d="M370,209.2c0,0,10.2,4.5,16.8,7.8c3.7,1.8,9.7,5.5,11.7,8.1c3.1,3.8,13.6,21.9,9.3,24.5
	c-3.9,2.4-11-14.2-11-14.2s8.6,16.2,3.4,18.2s-10.8-17.9-10.8-17.9s8.5,16.8,2.8,18c-4.3,1-10.3-16.7-10.3-16.7s7.2,14.5,2.8,15.6
	c-4.9,1.3-11.5-14.7-11.5-14.7c-11.7,1-17.7-3.3-21.6-6.8C350.8,230.2,370,209.2,370,209.2z"/>
<path class="st4" d="M394.3,229.6c1.1,1.9,2.2,3.7,3.1,5.7c0.9,2,1.8,4,2.5,6c1,2.6,1.7,5.4,2.1,8.2c-1-4.9-4.2-11.9-5.1-13.9
	S395.1,231.5,394.3,229.6C394.2,229.6,394.2,229.5,394.3,229.6z"/>
<path class="st4" d="M387.2,232.7c1.3,2.4,2.6,4.8,3.8,7.3s2,4.9,3,7.5c0.1,0.2-0.1,0.2-0.1,0c-1.1-2.5-2.3-4.8-3.4-7.3
	s-2.1-5-3.4-7.5C387.1,232.7,387.1,232.7,387.2,232.7z"/>
<path class="st4" d="M380.6,234.4c2.1,3.7,3.7,7.6,5,11.6c0.1,0.2-0.1,0.1-0.2,0c-1.6-3.9-2.8-7-4.9-11.5
	C380.4,234.4,380.5,234.3,380.6,234.4z"/>
<path class="st9" d="M339.2,160.8l21.3,4.1c0,0,2.5-14.9,1.5-24s-6.3-7.3-11.4,0S339.2,160.8,339.2,160.8z"/>
<path class="st6" d="M121.6,343.5c-1.2,4.9-2.4,9.8-2.6,14.8c0.1,0.3,0.1,1.2,0,0.9c0,0.8-1.3,0.7-1.3-0.1v-1.5
	c-2.9-3.6-7.1-5.9-10.5-9c-2.7-2.5-4.7-5.6-5.8-9.2c-2.8-9.7-0.2-20-3.6-29.8c-2.9-8.4-8.2-15.6-12.6-23.2c-4.7-8-8.2-16.4-8.5-25.8
	c-0.3-7.2,0.6-16.8,6.1-22.1c5.8-5.7,13-1.4,17.5,3.7c12.9,14.8,18.8,33.5,21.3,52.6c1.3,10.6,2.7,21.2,2.4,31.9
	C123.7,332.2,122.9,337.9,121.6,343.5z"/>
<path class="st4" d="M119,362.2c0.7-10,0.6-20-0.3-30v-0.1c0.2-8.1,0.8-16.2,0.5-24.3c-0.4-8.8-1.6-17.5-3.6-26c0-0.1-0.2-0.1-0.2,0
	c1.6,8.4,2.5,16.9,2.8,25.5c0.2,4.6,0.1,9.2-0.1,13.7c-0.1,1.5-0.2,3-0.3,4.5l0,0c-3.4-22.7-11.6-44.5-24.1-63.8
	c-0.2-0.3-0.6,0-0.5,0.3c8.9,14.7,15.6,30.6,19.6,47.3c-6.2-11.5-15.6-20.9-22.5-32c0-0.1-0.1,0-0.1,0.1c6.2,12.3,16.6,22,23.1,34.1
	c1.1,4.9,2.1,9.9,2.8,14.9c0.9,6.9,1.4,13.8,1.5,20.7c-3.8-7-7.7-13.8-10.8-21.3c0-0.1-0.1-0.1-0.2-0.1c-0.1,0-0.1,0.1-0.1,0.2
	c0,0,0,0,0,0c2.6,7.8,6.2,16.1,11.1,22.7c0,4.9-0.1,9.8-0.4,14.7c-0.8,13.1-3,26-4,39c0,0.2,0.1,0.3,0.2,0.3c0,0,0,0,0,0
	c0.2,0,0.3-0.1,0.3-0.3c0,0,0,0,0,0C116.5,389.2,118.2,375.7,119,362.2z"/>
<path class="st4" d="M105.1,261.3c0-0.1-0.2,0-0.2,0.1c2.4,6.6,3.7,13.3,5.5,20.1c0,0.1,0.2,0.2,0.3,0.2h0c0.1,0,0.2-0.1,0.2-0.3
	C110.3,274.5,107.8,267.6,105.1,261.3z"/>
<path class="st6" d="M165.8,289c-1.6,3.9-3.4,7.6-5.5,11.3c-4.3,7.8-8.8,15-9.6,24.1c-0.4,4.1-0.5,8.1-1.7,12
	c-1.1,3.4-2.7,6.6-4.8,9.4c-4.7,6.8-10.5,12.6-14.8,19.7c-4.5,7.3-7.8,15.4-9.8,23.7c-0.1,0.5-0.8,0.3-0.7-0.1V389c0,0,0-0.1,0-0.1
	c-0.7-19.5,0.9-39.2,6.8-57.9c2.6-8.2,5.8-16.2,9.4-24c3.2-6.8,7.2-13.3,12.8-18.4c3.6-3.3,11.5-9.5,16.7-6.2
	C167,284.1,166.8,286.5,165.8,289z"/>
<path class="st4" d="M146.2,333.2c-3.4,5.7-7.2,11.1-11.3,16.3c-1.9,2.5-3.8,4.9-5.7,7.4c-0.9,1.2-1.9,2.3-2.7,3.6
	c0.5-2,1-4.1,1.5-6.2c2.5-9.9,4.9-19.8,8.7-29.3c3.7-9.3,8.5-18,13.5-26.6c0.1-0.2-0.2-0.4-0.4-0.2c-4.1,6.8-8.3,13.5-11.8,20.7
	c-1.9,4-3.6,8.1-5,12.3c1.6-8.9,3.8-17.7,6.6-26.2c0-0.1-0.1-0.1-0.1,0c-3.7,8.7-6.1,17.9-6.9,27.3l0,0c-0.9,2.5-1.6,5.1-2.4,7.7
	c-3.1,10.9-5.8,21.9-8.3,33c0-7.3,0.6-14.5,1.9-21.7c0-0.2-0.2-0.2-0.3,0c-1.9,7.5-2.5,15.2-1.9,22.9c-0.9,4.2-1.9,8.4-2.8,12.6
	c-1.9,9-4.3,18.1-5.4,27.3c0,0.1,0.1,0.2,0.2,0.2s0.2-0.1,0.2-0.1c1.3-4.9,2.2-10,3.2-15s2.2-10,3.4-15c1.7-7.3,3.5-14.5,5.3-21.7
	c1.2-2.6,3.5-5,5.3-7.2c1.9-2.4,3.8-4.9,5.7-7.4c3.5-4.6,6.6-9.4,9.4-14.5C146.4,333.2,146.3,333.1,146.2,333.2z"/>
<path class="st4" d="M147,324.9c-4.3,5.5-7.9,11.4-11,17.6c0,0.1,0.1,0.2,0.1,0.1c3.7-5.9,7.4-11.8,11.1-17.6
	C147.3,324.9,147.2,324.8,147,324.9C147.1,324.8,147,324.9,147,324.9z"/>
<path class="st6" d="M64,307.5c2.5,4.4,5.4,9.6,4.3,14.8c-0.7,3.3-3.1,6-3.6,9.4c-1,7.5,6.4,12.4,11.8,15.9
	c13.4,8.8,31.8,16.6,34.2,34.6c0.1,0.6,1.2,0.5,1.1-0.1c0,0,0-0.1,0-0.1c0,0,0.1-0.1,0.1-0.1c1.8-9.1,1.7-18.4-0.3-27.4
	c-2-9.3-6-17.6-10.8-25.7c-8.1-13.8-16.6-27.8-28.8-38.4c-3.4-2.9-10.3-8.2-13-1.6C56.5,295.1,60.9,302.2,64,307.5z"/>
<path class="st4" d="M76.3,336.6c8.9,9.6,23,15,30.6,25.8c-4.5-16.5-12-31.4-23.5-44.2c-0.1-0.2-0.1-0.4,0.1-0.5
	c0.1-0.1,0.3-0.1,0.4,0c8.2,7.9,14.7,17.4,19.3,27.9c-2.1-7.3-4.9-14.4-8.3-21.2c0-0.1,0-0.3,0.1-0.3c0.1,0,0.2,0,0.3,0.1
	c4.2,7.4,7.2,15.5,8.9,23.9c10.1,24.4,11,53,8.9,78.7c0,0.2-0.1,0.3-0.3,0.3s-0.3-0.1-0.3-0.3c0.6-20.3,0.3-40.9-4.6-60.6
	c-0.1-0.4-0.2-0.8-0.3-1.2c-8.3-11.6-22.4-17-31.4-28C76,336.7,76.2,336.5,76.3,336.6z"/>
<path class="st4" d="M74.2,328.4c4.7,4.3,9.3,8.6,13.9,12.9c0,0,0,0.1-0.1,0.1c-5.3-3.6-10-7.9-14.1-12.7c-0.1-0.1-0.1-0.2,0-0.3
	C74,328.3,74.1,328.3,74.2,328.4z"/>
<path class="st4" d="M73.5,309.9c4.1,6.8,8.8,13.2,14,19.2c0,0,0,0.1,0,0.1c0,0-0.1,0-0.1,0l0,0l0,0c-5.8-5.5-10.6-12-14.1-19.1
	c0-0.1,0-0.2,0.1-0.2C73.4,309.8,73.4,309.8,73.5,309.9z"/>
<polygon class="st8" points="94.4,444.8 135.3,444.8 129.8,389.8 100.7,389.8 "/>
<polygon class="st4" points="99.7,398.8 130.7,398.8 129.8,389.8 100.7,389.8 "/>
<rect x="95.7" y="383.8" class="st8" width="38.3" height="8.8"/>
<text transform="matrix(1 0 0 1 194.9498 268.0055)" class="st6 st12 st13">EMAIL</text>
<text transform="matrix(1 0 0 1 194.6201 301.4523)" class="st6 st12 st13">EMAIL</text>
<text transform="matrix(1 0 0 1 195.0708 278.0001)" class="st4 st12 st14">name@mail.com</text>
<text transform="matrix(1 0 0 1 207.8147 240.1501)" class="st5 st12 st15 st16">WELCOME</text>
</svg>
